PowerhouseFilarQuarto-RegularItalic.ufo
<glyph name="exclam" format="2">
  <advance width="350"/>
  <unicode hex="0021"/>
  <outline>
    <contour>
      <point x="306" y="700" type="line"/>
      <point x="203" y="700" type="line"/>
      <point x="143" y="227" type="line"/>
      <point x="200" y="227" type="line"/>
    </contour>
    <component base="period" xScale="-1" yScale="-1" xOffset="287" yOffset="134" identifier="E3C5D1DD"/>
  </outline>
</glyph>
<glyph name="numbersign" format="2">
  <advance width="680"/>
  <unicode hex="0023"/>
  <outline>
    <contour>
      <point x="429" y="700" type="line"/>
      <point x="346" y="700" type="line"/>
      <point x="56" y="0" type="line"/>
      <point x="139" y="0" type="line"/>
    </contour>
    <contour>
      <point x="694" y="507" type="line"/>
      <point x="129" y="507" type="line"/>
      <point x="116" y="435" type="line"/>
      <point x="681" y="435" type="line"/>
    </contour>
    <contour>
      <point x="651" y="700" type="line"/>
      <point x="568" y="700" type="line"/>
      <point x="278" y="0" type="line"/>
      <point x="361" y="0" type="line"/>
    </contour>
    <contour>
      <point x="605" y="293" type="line"/>
      <point x="40" y="293" type="line"/>
      <point x="27" y="221" type="line"/>
      <point x="592" y="221" type="line"/>
    </contour>
  </outline>
</glyph>
<glyph name="percent" format="2">
  <advance width="760"/>
  <unicode hex="0025"/>
  <outline>
    <contour>
      <point x="245" y="639" type="curve" smooth="yes"/>
      <point x="282" y="639"/>
      <point x="302" y="609"/>
      <point x="302" y="560" type="curve" smooth="yes"/>
      <point x="302" y="498"/>
      <point x="270" y="413"/>
      <point x="209" y="413" type="curve" smooth="yes"/>
      <point x="172" y="413"/>
      <point x="152" y="443"/>
      <point x="152" y="492" type="curve" smooth="yes"/>
      <point x="152" y="554"/>
      <point x="184" y="639"/>
    </contour>
    <contour>
      <point x="589" y="287" type="curve" smooth="yes"/>
      <point x="626" y="287"/>
      <point x="646" y="257"/>
      <point x="646" y="208" type="curve" smooth="yes"/>
      <point x="646" y="146"/>
      <point x="614" y="61"/>
      <point x="553" y="61" type="curve" smooth="yes"/>
      <point x="516" y="61"/>
      <point x="496" y="91"/>
      <point x="496" y="140" type="curve" smooth="yes"/>
      <point x="496" y="202"/>
      <point x="528" y="287"/>
    </contour>
    <contour>
      <point x="252" y="705" type="curve" smooth="yes"/>
      <point x="141" y="705"/>
      <point x="78" y="594"/>
      <point x="78" y="488" type="curve" smooth="yes"/>
      <point x="78" y="401"/>
      <point x="128" y="347"/>
      <point x="202" y="347" type="curve" smooth="yes"/>
      <point x="313" y="347"/>
      <point x="376" y="458"/>
      <point x="376" y="564" type="curve" smooth="yes"/>
      <point x="376" y="651"/>
      <point x="326" y="705"/>
    </contour>
    <contour>
      <point x="596" y="353" type="curve" smooth="yes"/>
      <point x="485" y="353"/>
      <point x="422" y="242"/>
      <point x="422" y="136" type="curve" smooth="yes"/>
      <point x="422" y="49"/>
      <point x="472" y="-5"/>
      <point x="546" y="-5" type="curve" smooth="yes"/>
      <point x="657" y="-5"/>
      <point x="720" y="106"/>
      <point x="720" y="212" type="curve" smooth="yes"/>
      <point x="720" y="299"/>
      <point x="670" y="353"/>
    </contour>
    <contour>
      <point x="665" y="700" type="line"/>
      <point x="39" y="0" type="line"/>
      <point x="133" y="0" type="line"/>
      <point x="759" y="700" type="line"/>
    </contour>
  </outline>
</glyph>
<glyph name="hyphen" format="2">
  <advance width="600"/>
  <unicode hex="002D"/>
  <outline>
    <contour>
      <point x="149" y="257" type="line"/>
      <point x="455" y="257" type="line"/>
      <point x="469" y="335" type="line"/>
      <point x="163" y="335" type="line"/>
    </contour>
  </outline>
</glyph>
<glyph name="zero" format="2">
  <advance width="600"/>
  <unicode hex="0030"/>
  <outline>
    <contour>
      <point x="375" y="712" type="curve" smooth="yes"/>
      <point x="171" y="712"/>
      <point x="57" y="479"/>
      <point x="57" y="263" type="curve" smooth="yes"/>
      <point x="57" y="91"/>
      <point x="137" y="-12"/>
      <point x="262" y="-12" type="curve" smooth="yes"/>
      <point x="466" y="-12"/>
      <point x="580" y="221"/>
      <point x="580" y="437" type="curve" smooth="yes"/>
      <point x="580" y="609"/>
      <point x="500" y="712"/>
    </contour>
    <contour>
      <point x="364" y="636" type="curve" smooth="yes"/>
      <point x="443" y="636"/>
      <point x="489" y="564"/>
      <point x="489" y="438" type="curve" smooth="yes"/>
      <point x="489" y="271"/>
      <point x="414" y="64"/>
      <point x="273" y="64" type="curve" smooth="yes"/>
      <point x="194" y="64"/>
      <point x="148" y="136"/>
      <point x="148" y="262" type="curve" smooth="yes"/>
      <point x="148" y="429"/>
      <point x="223" y="636"/>
    </contour>
  </outline>
</glyph>
<glyph name="seven" format="2">
  <advance width="600"/>
  <unicode hex="0037"/>
  <outline>
    <contour>
      <point x="154" y="700" type="line"/>
      <point x="113" y="470" type="line"/>
      <point x="204" y="470" type="line"/>
      <point x="236" y="652" type="line"/>
      <point x="201" y="622" type="line"/>
      <point x="600" y="622" type="line"/>
      <point x="578" y="668" type="line"/>
      <point x="406" y="462"/>
      <point x="191" y="237"/>
      <point x="140" y="0" type="curve"/>
      <point x="239" y="0" type="line"/>
      <point x="289" y="233"/>
      <point x="484" y="438"/>
      <point x="645" y="632" type="curve"/>
      <point x="657" y="700" type="line"/>
    </contour>
  </outline>
</glyph>
<glyph name="equal" format="2">
  <advance width="600"/>
  <unicode hex="003D"/>
  <outline>
    <contour>
      <point x="555" y="402" type="line"/>
      <point x="568" y="478" type="line"/>
      <point x="112" y="478" type="line"/>
      <point x="99" y="402" type="line"/>
    </contour>
    <contour>
      <point x="520" y="202" type="line"/>
      <point x="533" y="278" type="line"/>
      <point x="77" y="278" type="line"/>
      <point x="64" y="202" type="line"/>
    </contour>
  </outline>
</glyph>
<glyph name="C" format="2">
  <advance width="760"/>
  <unicode hex="0043"/>
  <guideline x="399" y="712" angle="90" name="center" identifier="XET3QHM5Co"/>
  <outline>
    <contour>
      <point x="91" y="288" type="curve" smooth="yes"/>
      <point x="91" y="109"/>
      <point x="204" y="-12"/>
      <point x="371" y="-12" type="curve" smooth="yes"/>
      <point x="512" y="-12"/>
      <point x="634" y="74"/>
      <point x="689" y="204" type="curve"/>
      <point x="612" y="232" type="line"/>
      <point x="570" y="135"/>
      <point x="484" y="68"/>
      <point x="379" y="68" type="curve" smooth="yes"/>
      <point x="262" y="68"/>
      <point x="183" y="157"/>
      <point x="183" y="292" type="curve" smooth="yes"/>
      <point x="183" y="468"/>
      <point x="294" y="630"/>
      <point x="463" y="630" type="curve" smooth="yes"/>
      <point x="573" y="630"/>
      <point x="641" y="560"/>
      <point x="650" y="455" type="curve"/>
      <point x="734" y="476" type="line"/>
      <point x="718" y="618"/>
      <point x="620" y="712"/>
      <point x="472" y="712" type="curve" smooth="yes"/>
      <point x="252" y="712"/>
      <point x="91" y="521"/>
    </contour>
  </outline>
</glyph>
<glyph name="D" format="2">
  <advance width="760"/>
  <unicode hex="0044"/>
  <guideline x="347" y="700" angle="90" name="center" identifier="LJ2UVPxyas"/>
  <outline>
    <contour>
      <point x="95" y="82" type="line"/>
      <point x="80" y="0" type="line"/>
      <point x="335" y="0" type="line" smooth="yes"/>
      <point x="578" y="0"/>
      <point x="726" y="186"/>
      <point x="726" y="411" type="curve" smooth="yes"/>
      <point x="726" y="586"/>
      <point x="632" y="700"/>
      <point x="456" y="700" type="curve" smooth="yes"/>
      <point x="203" y="700" type="line"/>
      <point x="188" y="618" type="line"/>
      <point x="436" y="618" type="line" smooth="yes"/>
      <point x="566" y="618"/>
      <point x="634" y="544"/>
      <point x="634" y="406" type="curve" smooth="yes"/>
      <point x="634" y="232"/>
      <point x="530" y="82"/>
      <point x="345" y="82" type="curve" smooth="yes"/>
    </contour>
    <contour>
      <point x="171" y="700" type="line"/>
      <point x="47" y="0" type="line"/>
      <point x="138" y="0" type="line"/>
      <point x="262" y="700" type="line"/>
    </contour>
  </outline>
</glyph>
<glyph name="E" format="2">
  <advance width="600"/>
  <unicode hex="0045"/>
  <outline>
    <contour>
      <point x="167" y="700" type="line"/>
      <point x="44" y="0" type="line"/>
      <point x="135" y="0" type="line"/>
      <point x="258" y="700" type="line"/>
    </contour>
    <contour>
      <point x="188" y="618" type="line"/>
      <point x="609" y="618" type="line"/>
      <point x="623" y="700" type="line"/>
      <point x="202" y="700" type="line"/>
    </contour>
    <contour>
      <point x="144" y="315" type="line"/>
      <point x="417" y="315" type="line"/>
      <point x="432" y="396" type="line"/>
      <point x="159" y="396" type="line"/>
    </contour>
    <contour>
      <point x="83" y="0" type="line"/>
      <point x="518" y="0" type="line"/>
      <point x="532" y="82" type="line"/>
      <point x="97" y="82" type="line"/>
    </contour>
  </outline>
</glyph>
<glyph name="I" format="2">
  <advance width="350"/>
  <unicode hex="0049"/>
  <outline>
    <contour>
      <point x="209" y="700" type="line"/>
      <point x="86" y="0" type="line"/>
      <point x="177" y="0" type="line"/>
      <point x="301" y="700" type="line"/>
    </contour>
    <contour>
      <point x="86" y="0" type="line"/>
      <point x="177" y="0" type="line"/>
      <point x="191" y="82" type="line"/>
      <point x="101" y="82" type="line"/>
    </contour>
    <contour>
      <point x="195" y="618" type="line"/>
      <point x="287" y="618" type="line"/>
      <point x="301" y="700" type="line"/>
      <point x="209" y="700" type="line"/>
    </contour>
  </outline>
</glyph>
<glyph name="M" format="2">
  <advance width="760"/>
  <unicode hex="004D"/>
  <outline>
    <contour>
      <point x="230" y="622" type="line"/>
      <point x="356" y="230" type="line"/>
      <point x="398" y="230" type="line"/>
      <point x="660" y="621" type="line"/>
      <point x="648" y="621" type="line"/>
      <point x="539" y="0" type="line"/>
      <point x="625" y="0" type="line"/>
      <point x="748" y="700" type="line"/>
      <point x="626" y="700" type="line"/>
      <point x="385" y="340" type="line"/>
      <point x="400" y="340" type="line"/>
      <point x="284" y="700" type="line"/>
      <point x="172" y="700" type="line"/>
      <point x="49" y="0" type="line"/>
      <point x="134" y="0" type="line"/>
      <point x="243" y="622" type="line"/>
    </contour>
  </outline>
</glyph>
<glyph name="N" format="2">
  <advance width="760"/>
  <unicode hex="004E"/>
  <outline>
    <contour>
      <point x="582" y="40" type="line"/>
      <point x="311" y="700" type="line"/>
      <point x="184" y="700" type="line"/>
      <point x="61" y="0" type="line"/>
      <point x="150" y="0" type="line"/>
      <point x="266" y="657" type="line"/>
      <point x="240" y="657" type="line"/>
      <point x="510" y="0" type="line"/>
      <point x="613" y="0" type="line"/>
      <point x="736" y="700" type="line"/>
      <point x="647" y="700" type="line"/>
      <point x="531" y="40" type="line"/>
    </contour>
  </outline>
</glyph>
<glyph name="Q" format="2">
  <advance width="760"/>
  <unicode hex="0051"/>
  <outline>
    <contour>
      <point x="290" y="-69" type="curve" smooth="yes"/>
      <point x="290" y="-143"/>
      <point x="353" y="-182"/>
      <point x="454" y="-182" type="curve" smooth="yes"/>
      <point x="472" y="-182"/>
      <point x="496" y="-181"/>
      <point x="519" y="-178" type="curve"/>
      <point x="533" y="-103" type="line"/>
      <point x="512" y="-105"/>
      <point x="497" y="-106"/>
      <point x="483" y="-106" type="curve" smooth="yes"/>
      <point x="413" y="-106"/>
      <point x="387" y="-89"/>
      <point x="387" y="-51" type="curve" smooth="yes"/>
      <point x="387" y="-44"/>
      <point x="388" y="-37"/>
      <point x="389" y="-29" type="curve" smooth="yes"/>
      <point x="399" y="25" type="line"/>
      <point x="305" y="28" type="line"/>
      <point x="293" y="-39" type="line" smooth="yes"/>
      <point x="291" y="-49"/>
      <point x="290" y="-59"/>
    </contour>
    <contour>
      <point x="636" y="411" type="curve" smooth="yes"/>
      <point x="636" y="234"/>
      <point x="526" y="69"/>
      <point x="359" y="69" type="curve" smooth="yes"/>
      <point x="237" y="69"/>
      <point x="160" y="154"/>
      <point x="160" y="290" type="curve" smooth="yes"/>
      <point x="160" y="466"/>
      <point x="270" y="631"/>
      <point x="438" y="631" type="curve" smooth="yes"/>
      <point x="560" y="631"/>
      <point x="636" y="546"/>
    </contour>
    <contour>
      <point x="68" y="286" type="curve" smooth="yes"/>
      <point x="68" y="107"/>
      <point x="180" y="-12"/>
      <point x="351" y="-12" type="curve" smooth="yes"/>
      <point x="577" y="-12"/>
      <point x="728" y="189"/>
      <point x="728" y="415" type="curve" smooth="yes"/>
      <point x="728" y="593"/>
      <point x="616" y="712"/>
      <point x="446" y="712" type="curve" smooth="yes"/>
      <point x="219" y="712"/>
      <point x="68" y="512"/>
    </contour>
  </outline>
</glyph>
<glyph name="R" format="2">
  <advance width="680"/>
  <unicode hex="0052"/>
  <guideline x="345" y="819" angle="90" name="center" identifier="8sjVMfWuQ8"/>
  <outline>
    <contour>
      <point x="177" y="700" type="line"/>
      <point x="53" y="0" type="line"/>
      <point x="144" y="0" type="line"/>
      <point x="268" y="700" type="line"/>
    </contour>
    <contour>
      <point x="342" y="324" type="line"/>
      <point x="383" y="230"/>
      <point x="460" y="79"/>
      <point x="516" y="0" type="curve"/>
      <point x="614" y="0" type="line"/>
      <point x="614" y="7" type="line"/>
      <point x="559" y="82"/>
      <point x="479" y="231"/>
      <point x="437" y="324" type="curve"/>
    </contour>
    <contour>
      <point x="428" y="373" type="curve" smooth="yes"/>
      <point x="161" y="373" type="line"/>
      <point x="147" y="293" type="line"/>
      <point x="421" y="293" type="line" smooth="yes"/>
      <point x="596" y="293"/>
      <point x="673" y="406"/>
      <point x="673" y="522" type="curve" smooth="yes"/>
      <point x="673" y="629"/>
      <point x="601" y="700"/>
      <point x="486" y="700" type="curve" smooth="yes"/>
      <point x="224" y="700" type="line"/>
      <point x="210" y="619" type="line"/>
      <point x="472" y="619" type="line" smooth="yes"/>
      <point x="540" y="619"/>
      <point x="581" y="584"/>
      <point x="581" y="516" type="curve" smooth="yes"/>
      <point x="581" y="447"/>
      <point x="538" y="373"/>
    </contour>
  </outline>
</glyph>
<glyph name="S" format="2">
  <advance width="600"/>
  <unicode hex="0053"/>
  <outline>
    <contour>
      <point x="27" y="188" type="curve" smooth="yes"/>
      <point x="27" y="71"/>
      <point x="141" y="-12"/>
      <point x="281" y="-12" type="curve" smooth="yes"/>
      <point x="433" y="-12"/>
      <point x="556" y="78"/>
      <point x="556" y="224" type="curve" smooth="yes"/>
      <point x="556" y="311"/>
      <point x="491" y="365"/>
      <point x="395" y="384" type="curve" smooth="yes"/>
      <point x="310" y="401" type="line" smooth="yes"/>
      <point x="237" y="416"/>
      <point x="188" y="450"/>
      <point x="188" y="504" type="curve" smooth="yes"/>
      <point x="188" y="588"/>
      <point x="256" y="633"/>
      <point x="359" y="633" type="curve" smooth="yes"/>
      <point x="457" y="633"/>
      <point x="502" y="584"/>
      <point x="502" y="528" type="curve" smooth="yes"/>
      <point x="502" y="525"/>
      <point x="502" y="522"/>
      <point x="502" y="519" type="curve"/>
      <point x="595" y="513" type="line"/>
      <point x="595" y="518"/>
      <point x="596" y="524"/>
      <point x="596" y="529" type="curve" smooth="yes"/>
      <point x="596" y="623"/>
      <point x="516" y="712"/>
      <point x="359" y="712" type="curve" smooth="yes"/>
      <point x="215" y="712"/>
      <point x="99" y="633"/>
      <point x="99" y="496" type="curve" smooth="yes"/>
      <point x="99" y="402"/>
      <point x="167" y="341"/>
      <point x="273" y="320" type="curve" smooth="yes"/>
      <point x="358" y="303" type="line" smooth="yes"/>
      <point x="427" y="289"/>
      <point x="465" y="260"/>
      <point x="465" y="204" type="curve" smooth="yes"/>
      <point x="465" y="124"/>
      <point x="392" y="67"/>
      <point x="291" y="67" type="curve" smooth="yes"/>
      <point x="185" y="67"/>
      <point x="115" y="124"/>
      <point x="122" y="209" type="curve"/>
      <point x="29" y="216" type="line"/>
      <point x="28" y="206"/>
      <point x="27" y="197"/>
    </contour>
  </outline>
</glyph>
<glyph name="T" format="2">
  <advance width="680"/>
  <unicode hex="0054"/>
  <outline>
    <contour>
      <point x="370" y="671" type="line"/>
      <point x="251" y="0" type="line"/>
      <point x="342" y="0" type="line"/>
      <point x="461" y="671" type="line"/>
    </contour>
    <contour>
      <point x="107" y="620" type="line"/>
      <point x="706" y="620" type="line"/>
      <point x="720" y="700" type="line"/>
      <point x="121" y="700" type="line"/>
    </contour>
  </outline>
</glyph>
<glyph name="U" format="2">
  <advance width="760"/>
  <unicode hex="0055"/>
  <outline>
    <contour>
      <point x="656" y="248" type="curve" smooth="yes"/>
      <point x="736" y="700" type="line"/>
      <point x="646" y="700" type="line"/>
      <point x="568" y="257" type="line" smooth="yes"/>
      <point x="548" y="141"/>
      <point x="477" y="71"/>
      <point x="360" y="71" type="curve" smooth="yes"/>
      <point x="255" y="71"/>
      <point x="195" y="128"/>
      <point x="195" y="223" type="curve" smooth="yes"/>
      <point x="195" y="238"/>
      <point x="196" y="253"/>
      <point x="199" y="270" type="curve" smooth="yes"/>
      <point x="275" y="700" type="line"/>
      <point x="184" y="700" type="line"/>
      <point x="107" y="267" type="line" smooth="yes"/>
      <point x="104" y="247"/>
      <point x="102" y="229"/>
      <point x="102" y="211" type="curve" smooth="yes"/>
      <point x="102" y="77"/>
      <point x="195" y="-12"/>
      <point x="352" y="-12" type="curve" smooth="yes"/>
      <point x="522" y="-12"/>
      <point x="627" y="84"/>
    </contour>
  </outline>
</glyph>
<glyph name="W" format="2">
  <advance width="760"/>
  <unicode hex="0057"/>
  <outline>
    <contour>
      <point x="561" y="0" type="line"/>
      <point x="803" y="700" type="line"/>
      <point x="714" y="700" type="line"/>
      <point x="494" y="36" type="line"/>
      <point x="527" y="36" type="line"/>
      <point x="471" y="520" type="line"/>
      <point x="382" y="520" type="line"/>
      <point x="158" y="36" type="line"/>
      <point x="192" y="36" type="line"/>
      <point x="202" y="700" type="line"/>
      <point x="117" y="700" type="line"/>
      <point x="114" y="0" type="line"/>
      <point x="217" y="0" type="line"/>
      <point x="435" y="467" type="line"/>
      <point x="404" y="467" type="line"/>
      <point x="459" y="0" type="line"/>
    </contour>
  </outline>
</glyph>
<glyph name="asciicircum" format="2">
  <advance width="600"/>
  <unicode hex="005E"/>
  <outline>
    <contour>
      <point x="422" y="700" type="line"/>
      <point x="338" y="700" type="line"/>
      <point x="81" y="376" type="line"/>
      <point x="181" y="376" type="line"/>
      <point x="399" y="652" type="line"/>
      <point x="355" y="652" type="line"/>
      <point x="479" y="376" type="line"/>
      <point x="565" y="376" type="line"/>
    </contour>
  </outline>
</glyph>
<glyph name="underscore" format="2">
  <advance width="350"/>
  <unicode hex="005F"/>
  <outline>
    <contour>
      <point x="-62" y="-140" type="line"/>
      <point x="276" y="-140" type="line"/>
      <point x="288" y="-70" type="line"/>
      <point x="-50" y="-70" type="line"/>
    </contour>
  </outline>
</glyph>
<glyph name="e" format="2">
  <advance width="600"/>
  <unicode hex="0065"/>
  <outline>
    <contour>
      <point x="56" y="204" type="curve" smooth="yes"/>
      <point x="56" y="72"/>
      <point x="140" y="-12"/>
      <point x="282" y="-12" type="curve" smooth="yes"/>
      <point x="393" y="-12"/>
      <point x="478" y="48"/>
      <point x="520" y="134" type="curve"/>
      <point x="447" y="161" type="line"/>
      <point x="418" y="101"/>
      <point x="366" y="58"/>
      <point x="283" y="58" type="curve" smooth="yes"/>
      <point x="195" y="58"/>
      <point x="144" y="112"/>
      <point x="144" y="206" type="curve" smooth="yes"/>
      <point x="144" y="314"/>
      <point x="206" y="432"/>
      <point x="330" y="432" type="curve" smooth="yes"/>
      <point x="430" y="432"/>
      <point x="461" y="370"/>
      <point x="461" y="299" type="curve" smooth="yes"/>
      <point x="461" y="280"/>
      <point x="459" y="261"/>
      <point x="455" y="242" type="curve"/>
      <point x="485" y="292" type="line"/>
      <point x="120" y="292" type="line"/>
      <point x="108" y="226" type="line"/>
      <point x="536" y="226" type="line"/>
      <point x="538" y="238" type="line" smooth="yes"/>
      <point x="541" y="257"/>
      <point x="543" y="275"/>
      <point x="543" y="293" type="curve" smooth="yes"/>
      <point x="543" y="413"/>
      <point x="472" y="502"/>
      <point x="339" y="502" type="curve" smooth="yes"/>
      <point x="166" y="502"/>
      <point x="56" y="363"/>
    </contour>
  </outline>
</glyph>
<glyph name="f" format="2">
  <advance width="600"/>
  <unicode hex="0066"/>
  <outline>
    <contour>
      <point x="95" y="421" type="line"/>
      <point x="563" y="421" type="line"/>
      <point x="575" y="490" type="line"/>
      <point x="107" y="490" type="line"/>
    </contour>
    <contour>
      <point x="383" y="528" type="line"/>
      <point x="395" y="598"/>
      <point x="437" y="630"/>
      <point x="514" y="630" type="curve" smooth="yes"/>
      <point x="540" y="630"/>
      <point x="566" y="628"/>
      <point x="598" y="620" type="curve"/>
      <point x="611" y="690" type="line"/>
      <point x="573" y="700"/>
      <point x="540" y="702"/>
      <point x="511" y="702" type="curve" smooth="yes"/>
      <point x="397" y="702"/>
      <point x="314" y="641"/>
      <point x="297" y="546" type="curve" smooth="yes"/>
      <point x="201" y="0" type="line"/>
      <point x="290" y="0" type="line"/>
    </contour>
  </outline>
</glyph>
<glyph name="h" format="2">
  <advance width="600"/>
  <unicode hex="0068"/>
  <outline>
    <contour>
      <point x="173" y="700" type="line"/>
      <point x="50" y="0" type="line"/>
      <point x="138" y="0" type="line"/>
      <point x="191" y="308" type="line" smooth="yes"/>
      <point x="204" y="381"/>
      <point x="264" y="431"/>
      <point x="336" y="431" type="curve" smooth="yes"/>
      <point x="411" y="431"/>
      <point x="437" y="386"/>
      <point x="437" y="334" type="curve" smooth="yes"/>
      <point x="437" y="324"/>
      <point x="436" y="313"/>
      <point x="434" y="303" type="curve" smooth="yes"/>
      <point x="380" y="0" type="line"/>
      <point x="468" y="0" type="line"/>
      <point x="523" y="317" type="line" smooth="yes"/>
      <point x="525" y="328"/>
      <point x="526" y="339"/>
      <point x="526" y="350" type="curve" smooth="yes"/>
      <point x="526" y="435"/>
      <point x="469" y="502"/>
      <point x="374" y="502" type="curve" smooth="yes"/>
      <point x="299" y="502"/>
      <point x="226" y="459"/>
      <point x="186" y="393" type="curve"/>
      <point x="208" y="398" type="line"/>
      <point x="261" y="700" type="line"/>
    </contour>
  </outline>
</glyph>
<glyph name="m" format="2">
  <advance width="760"/>
  <unicode hex="006D"/>
  <outline>
    <contour>
      <point x="48" y="0" type="line"/>
      <point x="133" y="0" type="line"/>
      <point x="194" y="345" type="line" smooth="yes"/>
      <point x="203" y="398"/>
      <point x="242" y="431"/>
      <point x="293" y="431" type="curve" smooth="yes"/>
      <point x="341" y="431"/>
      <point x="366" y="397"/>
      <point x="357" y="344" type="curve" smooth="yes"/>
      <point x="296" y="0" type="line"/>
      <point x="381" y="0" type="line"/>
      <point x="444" y="353" type="line"/>
      <point x="455" y="401"/>
      <point x="493" y="431"/>
      <point x="541" y="431" type="curve" smooth="yes"/>
      <point x="589" y="431"/>
      <point x="614" y="397"/>
      <point x="605" y="344" type="curve" smooth="yes"/>
      <point x="544" y="0" type="line"/>
      <point x="629" y="0" type="line"/>
      <point x="691" y="355" type="line" smooth="yes"/>
      <point x="706" y="439"/>
      <point x="652" y="501"/>
      <point x="572" y="501" type="curve" smooth="yes"/>
      <point x="517" y="501"/>
      <point x="467" y="475"/>
      <point x="436" y="431" type="curve"/>
      <point x="419" y="473"/>
      <point x="377" y="501"/>
      <point x="326" y="501" type="curve" smooth="yes"/>
      <point x="280" y="501"/>
      <point x="240" y="483"/>
      <point x="212" y="450" type="curve"/>
      <point x="219" y="490" type="line"/>
      <point x="134" y="490" type="line"/>
    </contour>
  </outline>
</glyph>
<glyph name="p" format="2">
  <advance width="600"/>
  <unicode hex="0070"/>
  <guideline x="553" y="244" angle="80" identifier="eCHvAhjR8L"/>
  <outline>
    <contour>
      <point x="133" y="490" type="line"/>
      <point x="15" y="-180" type="line"/>
      <point x="103" y="-180" type="line"/>
      <point x="156" y="117" type="line"/>
      <point x="127" y="123" type="line"/>
      <point x="152" y="35"/>
      <point x="218" y="-12"/>
      <point x="308" y="-12" type="curve" smooth="yes"/>
      <point x="468" y="-12"/>
      <point x="558" y="143"/>
      <point x="558" y="296" type="curve" smooth="yes"/>
      <point x="558" y="432"/>
      <point x="481" y="502"/>
      <point x="380" y="502" type="curve" smooth="yes"/>
      <point x="295" y="502"/>
      <point x="222" y="459"/>
      <point x="170" y="377" type="curve"/>
      <point x="201" y="371" type="line"/>
      <point x="221" y="490" type="line"/>
    </contour>
    <contour>
      <point x="468" y="287" type="curve" smooth="yes"/>
      <point x="468" y="175"/>
      <point x="409" y="58"/>
      <point x="291" y="58" type="curve" smooth="yes"/>
      <point x="213" y="58"/>
      <point x="167" y="111"/>
      <point x="167" y="202" type="curve" smooth="yes"/>
      <point x="167" y="315"/>
      <point x="226" y="432"/>
      <point x="345" y="432" type="curve" smooth="yes"/>
      <point x="422" y="432"/>
      <point x="468" y="380"/>
    </contour>
  </outline>
</glyph>
<glyph name="r" format="2">
  <advance width="350"/>
  <unicode hex="0072"/>
  <guideline x="192" y="602" angle="90" name="top" identifier="pAI58YIoZD"/>
  <guideline x="125" y="7" angle="90" name="stem" identifier="hi3D3jrrqJ"/>
  <outline>
    <contour>
      <point x="157" y="241" type="line" smooth="yes"/>
      <point x="176" y="350"/>
      <point x="252" y="408"/>
      <point x="325" y="408" type="curve" smooth="yes"/>
      <point x="335" y="408"/>
      <point x="349" y="407"/>
      <point x="359" y="404" type="curve"/>
      <point x="376" y="497" type="line"/>
      <point x="370" y="499"/>
      <point x="360" y="500"/>
      <point x="350" y="500" type="curve" smooth="yes"/>
      <point x="270" y="500"/>
      <point x="197" y="433"/>
      <point x="158" y="350" type="curve"/>
      <point x="177" y="350" type="line"/>
      <point x="201" y="490" type="line"/>
      <point x="113" y="490" type="line"/>
      <point x="27" y="0" type="line"/>
      <point x="115" y="0" type="line"/>
    </contour>
  </outline>
</glyph>
<glyph name="s" format="2">
  <advance width="600"/>
  <unicode hex="0073"/>
  <guideline x="506" y="144" angle="80" identifier="A3HgAJlLz5"/>
  <guideline x="102" y="346" angle="80" identifier="gxtwt8IGDx"/>
  <guideline x="187" y="355" angle="80" identifier="jGwhRVO46c"/>
  <outline>
    <contour>
      <point x="54" y="164" type="line"/>
      <point x="53" y="156"/>
      <point x="52" y="148"/>
      <point x="52" y="140" type="curve" smooth="yes"/>
      <point x="52" y="45"/>
      <point x="154" y="-12"/>
      <point x="280" y="-12" type="curve" smooth="yes"/>
      <point x="446" y="-12"/>
      <point x="504" y="80"/>
      <point x="504" y="150" type="curve" smooth="yes"/>
      <point x="504" y="207"/>
      <point x="471" y="254"/>
      <point x="385" y="271" type="curve" smooth="yes"/>
      <point x="274" y="293" type="line" smooth="yes"/>
      <point x="213" y="305"/>
      <point x="190" y="321"/>
      <point x="190" y="356" type="curve" smooth="yes"/>
      <point x="190" y="400"/>
      <point x="247" y="435"/>
      <point x="324" y="435" type="curve" smooth="yes"/>
      <point x="389" y="435"/>
      <point x="448" y="407"/>
      <point x="448" y="356" type="curve" smooth="yes"/>
      <point x="448" y="354"/>
      <point x="448" y="351"/>
      <point x="448" y="349" type="curve"/>
      <point x="532" y="343" type="line"/>
      <point x="533" y="349"/>
      <point x="533" y="355"/>
      <point x="533" y="361" type="curve" smooth="yes"/>
      <point x="533" y="441"/>
      <point x="448" y="502"/>
      <point x="329" y="502" type="curve" smooth="yes"/>
      <point x="205" y="502"/>
      <point x="105" y="442"/>
      <point x="105" y="344" type="curve" smooth="yes"/>
      <point x="105" y="283"/>
      <point x="132" y="243"/>
      <point x="227" y="224" type="curve" smooth="yes"/>
      <point x="335" y="202" type="line" smooth="yes"/>
      <point x="392" y="190"/>
      <point x="416" y="172"/>
      <point x="416" y="136" type="curve" smooth="yes"/>
      <point x="416" y="90"/>
      <point x="381" y="55"/>
      <point x="285" y="55" type="curve" smooth="yes"/>
      <point x="207" y="55"/>
      <point x="144" y="83"/>
      <point x="144" y="140" type="curve" smooth="yes"/>
      <point x="144" y="145"/>
      <point x="144" y="149"/>
      <point x="145" y="154" type="curve"/>
    </contour>
  </outline>
</glyph>
<glyph name="currency" format="2">
  <advance width="680"/>
  <unicode hex="00A4"/>
  <outline>
    <contour>
      <point x="223" y="323" type="curve" smooth="yes"/>
      <point x="223" y="402"/>
      <point x="284" y="484"/>
      <point x="376" y="484" type="curve" smooth="yes"/>
      <point x="447" y="484"/>
      <point x="493" y="436"/>
      <point x="493" y="367" type="curve" smooth="yes"/>
      <point x="493" y="288"/>
      <point x="432" y="206"/>
      <point x="340" y="206" type="curve" smooth="yes"/>
      <point x="269" y="206"/>
      <point x="223" y="254"/>
    </contour>
    <contour>
      <point x="226" y="451" type="line"/>
      <point x="284" y="498" type="line"/>
      <point x="200" y="604" type="line"/>
      <point x="142" y="557" type="line"/>
    </contour>
    <contour>
      <point x="330" y="135" type="curve" smooth="yes"/>
      <point x="470" y="135"/>
      <point x="569" y="255"/>
      <point x="569" y="375" type="curve" smooth="yes"/>
      <point x="569" y="477"/>
      <point x="492" y="555"/>
      <point x="386" y="555" type="curve" smooth="yes"/>
      <point x="246" y="555"/>
      <point x="147" y="435"/>
      <point x="147" y="315" type="curve" smooth="yes"/>
      <point x="147" y="213"/>
      <point x="224" y="135"/>
    </contour>
    <contour>
      <point x="516" y="86" type="line"/>
      <point x="574" y="133" type="line"/>
      <point x="490" y="239" type="line"/>
      <point x="432" y="192" type="line"/>
    </contour>
    <contour>
      <point x="484" y="494" type="line"/>
      <point x="528" y="439" type="line"/>
      <point x="648" y="537" type="line"/>
      <point x="604" y="592" type="line"/>
    </contour>
    <contour>
      <point x="68" y="153" type="line"/>
      <point x="112" y="98" type="line"/>
      <point x="232" y="196" type="line"/>
      <point x="188" y="251" type="line"/>
    </contour>
  </outline>
</glyph>
<glyph name="logicalnot" format="2">
  <advance width="680"/>
  <unicode hex="00AC"/>
  <outline>
    <contour>
      <point x="458" y="61" type="line"/>
      <point x="536" y="61" type="line"/>
      <point x="591" y="378" type="line"/>
      <point x="135" y="378" type="line"/>
      <point x="122" y="302" type="line"/>
      <point x="539" y="302" type="line"/>
      <point x="507" y="339" type="line"/>
    </contour>
  </outline>
</glyph>
<glyph name="degree" format="2">
  <advance width="350"/>
  <unicode hex="00B0"/>
  <outline>
    <contour>
      <point x="376" y="585" type="curve" smooth="yes"/>
      <point x="376" y="657"/>
      <point x="324" y="708"/>
      <point x="251" y="708" type="curve" smooth="yes"/>
      <point x="161" y="708"/>
      <point x="87" y="639"/>
      <point x="87" y="545" type="curve" smooth="yes"/>
      <point x="87" y="473"/>
      <point x="139" y="422"/>
      <point x="212" y="422" type="curve" smooth="yes"/>
      <point x="302" y="422"/>
      <point x="376" y="491"/>
    </contour>
    <contour>
      <point x="242" y="642" type="curve" smooth="yes"/>
      <point x="280" y="642"/>
      <point x="307" y="616"/>
      <point x="307" y="578" type="curve" smooth="yes"/>
      <point x="307" y="527"/>
      <point x="265" y="488"/>
      <point x="221" y="488" type="curve" smooth="yes"/>
      <point x="183" y="488"/>
      <point x="156" y="513"/>
      <point x="156" y="552" type="curve" smooth="yes"/>
      <point x="156" y="602"/>
      <point x="198" y="642"/>
    </contour>
  </outline>
</glyph>
<glyph name="plusminus" format="2">
  <advance width="600"/>
  <unicode hex="00B1"/>
  <outline>
    <contour>
      <point x="545" y="347" type="line"/>
      <point x="559" y="423" type="line"/>
      <point x="103" y="423" type="line"/>
      <point x="89" y="347" type="line"/>
    </contour>
    <contour>
      <point x="403" y="613" type="line"/>
      <point x="325" y="613" type="line"/>
      <point x="245" y="157" type="line"/>
      <point x="323" y="157" type="line"/>
    </contour>
    <contour>
      <point x="484" y="0" type="line"/>
      <point x="497" y="76" type="line"/>
      <point x="41" y="76" type="line"/>
      <point x="28" y="0" type="line"/>
    </contour>
  </outline>
</glyph>
<glyph name="ordmasculine" format="2">
  <advance width="350"/>
  <unicode hex="00BA"/>
  <outline>
    <contour>
      <point x="293" y="506" type="curve" smooth="yes"/>
      <point x="276" y="409"/>
      <point x="251" y="367"/>
      <point x="204" y="367" type="curve" smooth="yes"/>
      <point x="153" y="367"/>
      <point x="132" y="409"/>
      <point x="149" y="506" type="curve" smooth="yes"/>
      <point x="166" y="603"/>
      <point x="191" y="646"/>
      <point x="239" y="646" type="curve" smooth="yes"/>
      <point x="289" y="646"/>
      <point x="310" y="603"/>
    </contour>
    <contour>
      <point x="74" y="516" type="curve" smooth="yes"/>
      <point x="48" y="370"/>
      <point x="109" y="301"/>
      <point x="197" y="301" type="curve" smooth="yes"/>
      <point x="287" y="301"/>
      <point x="344" y="360"/>
      <point x="368" y="496" type="curve" smooth="yes"/>
      <point x="394" y="642"/>
      <point x="333" y="712"/>
      <point x="245" y="712" type="curve" smooth="yes"/>
      <point x="155" y="712"/>
      <point x="98" y="652"/>
    </contour>
  </outline>
</glyph>
<glyph name="Icircumflex" format="2">
  <advance width="350"/>
  <unicode hex="00CE"/>
  <outline>
    <contour>
      <point x="243" y="892" type="line"/>
      <point x="113" y="771" type="line"/>
      <point x="191" y="771" type="line"/>
      <point x="311" y="855" type="line"/>
      <point x="259" y="855" type="line"/>
      <point x="349" y="771" type="line"/>
      <point x="419" y="771" type="line"/>
      <point x="333" y="892" type="line"/>
    </contour>
    <component base="I"/>
  </outline>
</glyph>
<glyph name="Idieresis" format="2">
  <advance width="350"/>
  <unicode hex="00CF"/>
  <outline>
    <contour>
      <point x="142" y="878" type="line"/>
      <point x="123" y="771" type="line"/>
      <point x="223" y="771" type="line"/>
      <point x="242" y="878" type="line"/>
    </contour>
    <contour>
      <point x="331" y="878" type="line"/>
      <point x="312" y="771" type="line"/>
      <point x="412" y="771" type="line"/>
      <point x="431" y="878" type="line"/>
    </contour>
    <component base="I"/>
  </outline>
</glyph>
<glyph name="Eth" format="2">
  <advance width="760"/>
  <unicode hex="00D0"/>
  <outline>
    <contour>
      <point x="66" y="0" type="line"/>
      <point x="157" y="0" type="line"/>
      <point x="281" y="700" type="line"/>
      <point x="190" y="700" type="line"/>
    </contour>
    <contour>
      <point x="114" y="82" type="line"/>
      <point x="99" y="0" type="line"/>
      <point x="335" y="0" type="line" smooth="yes"/>
      <point x="578" y="0"/>
      <point x="726" y="186"/>
      <point x="726" y="411" type="curve" smooth="yes"/>
      <point x="726" y="586"/>
      <point x="632" y="700"/>
      <point x="456" y="700" type="curve" smooth="yes"/>
      <point x="222" y="700" type="line"/>
      <point x="207" y="618" type="line"/>
      <point x="436" y="618" type="line" smooth="yes"/>
      <point x="566" y="618"/>
      <point x="634" y="544"/>
      <point x="634" y="406" type="curve" smooth="yes"/>
      <point x="634" y="232"/>
      <point x="530" y="82"/>
      <point x="345" y="82" type="curve" smooth="yes"/>
    </contour>
    <contour>
      <point x="42" y="317" type="line"/>
      <point x="376" y="317" type="line"/>
      <point x="390" y="398" type="line"/>
      <point x="56" y="398" type="line"/>
    </contour>
  </outline>
</glyph>
<glyph name="Thorn" format="2">
  <advance width="680"/>
  <unicode hex="00DE"/>
  <outline>
    <contour>
      <point x="177" y="700" type="line"/>
      <point x="53" y="0" type="line"/>
      <point x="144" y="0" type="line"/>
      <point x="268" y="700" type="line"/>
    </contour>
    <contour>
      <point x="469" y="466" type="line" smooth="yes"/>
      <point x="539" y="466"/>
      <point x="579" y="438"/>
      <point x="579" y="373" type="curve" smooth="yes"/>
      <point x="579" y="304"/>
      <point x="535" y="244"/>
      <point x="429" y="244" type="curve" smooth="yes"/>
      <point x="137" y="244" type="line"/>
      <point x="123" y="163" type="line"/>
      <point x="425" y="163" type="line" smooth="yes"/>
      <point x="598" y="163"/>
      <point x="671" y="269"/>
      <point x="671" y="378" type="curve" smooth="yes"/>
      <point x="671" y="484"/>
      <point x="595" y="547"/>
      <point x="486" y="547" type="curve" smooth="yes"/>
      <point x="192" y="547" type="line"/>
      <point x="178" y="466" type="line"/>
    </contour>
  </outline>
</glyph>
<glyph name="ae" format="2">
  <advance width="760"/>
  <unicode hex="00E6"/>
  <outline>
    <contour>
      <point x="46" y="155" type="curve" smooth="yes"/>
      <point x="31" y="51"/>
      <point x="95" y="-12"/>
      <point x="192" y="-12" type="curve" smooth="yes"/>
      <point x="298" y="-12"/>
      <point x="373" y="61"/>
      <point x="398" y="206" type="curve" smooth="yes"/>
      <point x="418" y="324" type="line" smooth="yes"/>
      <point x="421" y="339"/>
      <point x="422" y="353"/>
      <point x="422" y="366" type="curve" smooth="yes"/>
      <point x="422" y="453"/>
      <point x="366" y="502"/>
      <point x="277" y="502" type="curve" smooth="yes"/>
      <point x="164" y="502"/>
      <point x="114" y="428"/>
      <point x="99" y="357" type="curve"/>
      <point x="178" y="342" type="line"/>
      <point x="187" y="386"/>
      <point x="210" y="430"/>
      <point x="274" y="430" type="curve" smooth="yes"/>
      <point x="322" y="430"/>
      <point x="347" y="406"/>
      <point x="347" y="366" type="curve" smooth="yes"/>
      <point x="347" y="358"/>
      <point x="346" y="349"/>
      <point x="344" y="340" type="curve" smooth="yes"/>
      <point x="313" y="157" type="line" smooth="yes"/>
      <point x="301" y="93"/>
      <point x="257" y="59"/>
      <point x="205" y="59" type="curve" smooth="yes"/>
      <point x="152" y="59"/>
      <point x="121" y="96"/>
      <point x="131" y="147" type="curve" smooth="yes"/>
      <point x="140" y="198"/>
      <point x="177" y="221"/>
      <point x="244" y="224" type="curve" smooth="yes"/>
      <point x="357" y="229" type="line"/>
      <point x="369" y="296" type="line"/>
      <point x="249" y="290" type="line" smooth="yes"/>
      <point x="141" y="285"/>
      <point x="63" y="243"/>
    </contour>
    <contour>
      <point x="340" y="242" type="curve" smooth="yes"/>
      <point x="320" y="85"/>
      <point x="382" y="-12"/>
      <point x="491" y="-12" type="curve" smooth="yes"/>
      <point x="580" y="-12"/>
      <point x="638" y="44"/>
      <point x="672" y="133" type="curve"/>
      <point x="605" y="154" type="line"/>
      <point x="583" y="94"/>
      <point x="551" y="59"/>
      <point x="500" y="59" type="curve" smooth="yes"/>
      <point x="434" y="59"/>
      <point x="398" y="117"/>
      <point x="413" y="228" type="curve" smooth="yes"/>
      <point x="427" y="349"/>
      <point x="474" y="431"/>
      <point x="547" y="431" type="curve" smooth="yes"/>
      <point x="592" y="431"/>
      <point x="619" y="398"/>
      <point x="619" y="328" type="curve" smooth="yes"/>
      <point x="619" y="304"/>
      <point x="617" y="277"/>
      <point x="611" y="246" type="curve"/>
      <point x="636" y="292" type="line"/>
      <point x="385" y="292" type="line"/>
      <point x="374" y="226" type="line"/>
      <point x="686" y="226" type="line"/>
      <point x="688" y="241" type="line" smooth="yes"/>
      <point x="694" y="270"/>
      <point x="696" y="296"/>
      <point x="696" y="322" type="curve" smooth="yes"/>
      <point x="696" y="429"/>
      <point x="648" y="502"/>
      <point x="554" y="502" type="curve" smooth="yes"/>
      <point x="437" y="502"/>
      <point x="358" y="395"/>
    </contour>
  </outline>
</glyph>
<glyph name="idieresis" format="2">
  <advance width="350"/>
  <unicode hex="00EF"/>
  <outline>
    <contour>
      <point x="121" y="700" type="line"/>
      <point x="103" y="597" type="line"/>
      <point x="199" y="597" type="line"/>
      <point x="217" y="700" type="line"/>
    </contour>
    <contour>
      <point x="292" y="700" type="line"/>
      <point x="274" y="597" type="line"/>
      <point x="370" y="597" type="line"/>
      <point x="388" y="700" type="line"/>
    </contour>
    <component base="dotlessi"/>
  </outline>
</glyph>
<glyph name="aogonek" format="2">
  <advance width="600"/>
  <unicode hex="0105"/>
  <outline>
    <contour>
      <point x="395" y="-205" type="curve" smooth="yes"/>
      <point x="412" y="-205"/>
      <point x="440" y="-203"/>
      <point x="464" y="-197" type="curve"/>
      <point x="475" y="-137" type="line"/>
      <point x="457" y="-139"/>
      <point x="441" y="-142"/>
      <point x="423" y="-142" type="curve" smooth="yes"/>
      <point x="396" y="-142"/>
      <point x="378" y="-135"/>
      <point x="378" y="-114" type="curve" smooth="yes"/>
      <point x="378" y="-78"/>
      <point x="429" y="-39"/>
      <point x="485" y="-8" type="curve"/>
      <point x="426" y="4" type="line"/>
      <point x="371" y="-22"/>
      <point x="300" y="-61"/>
      <point x="300" y="-131" type="curve" smooth="yes"/>
      <point x="300" y="-173"/>
      <point x="325" y="-205"/>
    </contour>
    <component base="a"/>
  </outline>
</glyph>
<glyph name="Itilde" format="2">
  <advance width="350"/>
  <unicode hex="0128"/>
  <outline>
    <contour>
      <point x="228" y="878" type="curve" smooth="yes"/>
      <point x="180" y="878"/>
      <point x="147" y="836"/>
      <point x="133" y="771" type="curve"/>
      <point x="190" y="771" type="line"/>
      <point x="198" y="799"/>
      <point x="207" y="812"/>
      <point x="223" y="812" type="curve" smooth="yes"/>
      <point x="251" y="812"/>
      <point x="283" y="778"/>
      <point x="326" y="778" type="curve" smooth="yes"/>
      <point x="374" y="778"/>
      <point x="407" y="820"/>
      <point x="421" y="885" type="curve"/>
      <point x="363" y="885" type="line"/>
      <point x="356" y="857"/>
      <point x="347" y="844"/>
      <point x="331" y="844" type="curve" smooth="yes"/>
      <point x="303" y="844"/>
      <point x="271" y="878"/>
    </contour>
    <component base="I"/>
  </outline>
</glyph>
<glyph name="itilde" format="2">
  <advance width="350"/>
  <unicode hex="0129"/>
  <outline>
    <contour>
      <point x="198" y="677" type="curve" smooth="yes"/>
      <point x="149" y="677"/>
      <point x="118" y="635"/>
      <point x="104" y="570" type="curve"/>
      <point x="162" y="570" type="line"/>
      <point x="170" y="598"/>
      <point x="177" y="612"/>
      <point x="194" y="612" type="curve" smooth="yes"/>
      <point x="221" y="612"/>
      <point x="252" y="579"/>
      <point x="294" y="579" type="curve" smooth="yes"/>
      <point x="343" y="579"/>
      <point x="374" y="621"/>
      <point x="388" y="686" type="curve"/>
      <point x="329" y="686" type="line"/>
      <point x="322" y="658"/>
      <point x="315" y="644"/>
      <point x="298" y="644" type="curve" smooth="yes"/>
      <point x="271" y="644"/>
      <point x="240" y="677"/>
    </contour>
    <component base="dotlessi"/>
  </outline>
</glyph>
<glyph name="Imacron" format="2">
  <advance width="350"/>
  <unicode hex="012A"/>
  <outline>
    <contour>
      <point x="144" y="776" type="line"/>
      <point x="398" y="776" type="line"/>
      <point x="410" y="844" type="line"/>
      <point x="156" y="844" type="line"/>
    </contour>
    <component base="I"/>
  </outline>
</glyph>
<glyph name="Ibreve" format="2">
  <advance width="350"/>
  <unicode hex="012C"/>
  <outline>
    <contour>
      <point x="154" y="892" type="line"/>
      <point x="142" y="822"/>
      <point x="185" y="761"/>
      <point x="273" y="761" type="curve" smooth="yes"/>
      <point x="362" y="761"/>
      <point x="412" y="822"/>
      <point x="424" y="892" type="curve"/>
      <point x="358" y="892" type="line"/>
      <point x="351" y="854"/>
      <point x="326" y="823"/>
      <point x="280" y="823" type="curve" smooth="yes"/>
      <point x="234" y="823"/>
      <point x="215" y="854"/>
      <point x="220" y="892" type="curve"/>
    </contour>
    <component base="I"/>
  </outline>
</glyph>
<glyph name="ibreve" format="2">
  <advance width="350"/>
  <unicode hex="012D"/>
  <outline>
    <contour>
      <point x="125" y="700" type="line"/>
      <point x="113" y="626"/>
      <point x="154" y="565"/>
      <point x="242" y="565" type="curve" smooth="yes"/>
      <point x="331" y="565"/>
      <point x="379" y="626"/>
      <point x="391" y="700" type="curve"/>
      <point x="325" y="700" type="line"/>
      <point x="319" y="658"/>
      <point x="293" y="627"/>
      <point x="248" y="627" type="curve" smooth="yes"/>
      <point x="203" y="627"/>
      <point x="185" y="658"/>
      <point x="191" y="700" type="curve"/>
    </contour>
    <component base="dotlessi"/>
  </outline>
</glyph>
<glyph name="dotlessi" format="2">
  <advance width="350"/>
  <unicode hex="0131"/>
  <outline>
    <contour>
      <point x="100" y="69" type="line"/>
      <point x="88" y="0" type="line"/>
      <point x="176" y="0" type="line"/>
      <point x="188" y="69" type="line"/>
    </contour>
    <contour>
      <point x="174" y="490" type="line"/>
      <point x="162" y="421" type="line"/>
      <point x="250" y="421" type="line"/>
      <point x="262" y="490" type="line"/>
    </contour>
    <contour>
      <point x="174" y="490" type="line"/>
      <point x="88" y="0" type="line"/>
      <point x="176" y="0" type="line"/>
      <point x="262" y="490" type="line"/>
    </contour>
  </outline>
</glyph>
<glyph name="jcircumflex" format="2">
  <advance width="350"/>
  <unicode hex="0135"/>
  <outline>
    <contour>
      <point x="213" y="700" type="line"/>
      <point x="94" y="570" type="line"/>
      <point x="168" y="570" type="line"/>
      <point x="282" y="671" type="line"/>
      <point x="230" y="671" type="line"/>
      <point x="310" y="570" type="line"/>
      <point x="376" y="570" type="line"/>
      <point x="301" y="700" type="line"/>
    </contour>
    <component base="dotlessj"/>
  </outline>
</glyph>
<glyph name="Ldot" format="2">
  <advance width="600"/>
  <unicode hex="013F"/>
  <outline>
    <contour>
      <point x="428" y="442" type="line"/>
      <point x="407" y="326" type="line"/>
      <point x="506" y="326" type="line"/>
      <point x="527" y="442" type="line"/>
    </contour>
    <component base="L" identifier="44511D8E"/>
  </outline>
</glyph>
<glyph name="ldot" format="2">
  <advance width="350"/>
  <unicode hex="0140"/>
  <outline>
    <contour>
      <point x="333" y="433" type="line"/>
      <point x="313" y="317" type="line"/>
      <point x="412" y="317" type="line"/>
      <point x="432" y="433" type="line"/>
    </contour>
    <component base="l"/>
  </outline>
</glyph>
<glyph name="Eng" format="2">
  <advance width="760"/>
  <unicode hex="014A"/>
  <outline>
    <contour>
      <point x="332" y="-92" type="curve"/>
      <point x="318" y="-173" type="line"/>
      <point x="342" y="-185"/>
      <point x="379" y="-192"/>
      <point x="421" y="-192" type="curve" smooth="yes"/>
      <point x="534" y="-192"/>
      <point x="588" y="-138"/>
      <point x="604" y="-46" type="curve" smooth="yes"/>
      <point x="736" y="700" type="line"/>
      <point x="647" y="700" type="line"/>
      <point x="550" y="151" type="line"/>
      <point x="306" y="700" type="line"/>
      <point x="184" y="700" type="line"/>
      <point x="60" y="0" type="line"/>
      <point x="149" y="0" type="line"/>
      <point x="256" y="604" type="line"/>
      <point x="523" y="3" type="line"/>
      <point x="517" y="-35" type="line" smooth="yes"/>
      <point x="509" y="-83"/>
      <point x="487" y="-111"/>
      <point x="421" y="-111" type="curve" smooth="yes"/>
      <point x="382" y="-111"/>
      <point x="354" y="-102"/>
    </contour>
  </outline>
</glyph>
<glyph name="OE" format="2">
  <advance width="760"/>
  <unicode hex="0152"/>
  <outline>
    <contour>
      <point x="54" y="370" type="curve" smooth="yes"/>
      <point x="15" y="151"/>
      <point x="70" y="-12"/>
      <point x="218" y="-12" type="curve" smooth="yes"/>
      <point x="275" y="-12"/>
      <point x="323" y="14"/>
      <point x="363" y="60" type="curve"/>
      <point x="352" y="0" type="line"/>
      <point x="702" y="0" type="line"/>
      <point x="716" y="82" type="line"/>
      <point x="454" y="82" type="line"/>
      <point x="495" y="315" type="line"/>
      <point x="651" y="315" type="line"/>
      <point x="666" y="396" type="line"/>
      <point x="510" y="396" type="line"/>
      <point x="549" y="618" type="line"/>
      <point x="793" y="618" type="line"/>
      <point x="807" y="700" type="line"/>
      <point x="475" y="700" type="line"/>
      <point x="462" y="628" type="line"/>
      <point x="437" y="682"/>
      <point x="390" y="712"/>
      <point x="325" y="712" type="curve" smooth="yes"/>
      <point x="201" y="712"/>
      <point x="96" y="607"/>
    </contour>
    <contour>
      <point x="412" y="340" type="curve" smooth="yes"/>
      <point x="378" y="147"/>
      <point x="313" y="69"/>
      <point x="235" y="69" type="curve" smooth="yes"/>
      <point x="155" y="69"/>
      <point x="105" y="149"/>
      <point x="143" y="361" type="curve" smooth="yes"/>
      <point x="177" y="553"/>
      <point x="244" y="631"/>
      <point x="324" y="631" type="curve" smooth="yes"/>
      <point x="411" y="631"/>
      <point x="444" y="525"/>
    </contour>
  </outline>
</glyph>
<glyph name="Tbar" format="2">
  <advance width="680"/>
  <unicode hex="0166"/>
  <outline>
    <contour>
      <point x="154" y="325" type="line"/>
      <point x="555" y="325" type="line"/>
      <point x="569" y="403" type="line"/>
      <point x="168" y="403" type="line"/>
    </contour>
    <contour>
      <point x="370" y="671" type="line"/>
      <point x="252" y="0" type="line"/>
      <point x="343" y="0" type="line"/>
      <point x="461" y="671" type="line"/>
    </contour>
    <contour>
      <point x="107" y="620" type="line"/>
      <point x="706" y="620" type="line"/>
      <point x="720" y="700" type="line"/>
      <point x="121" y="700" type="line"/>
    </contour>
  </outline>
</glyph>
<glyph name="Bhook" format="2">
  <advance width="760"/>
  <unicode hex="0181"/>
  <outline>
    <contour>
      <point x="325" y="700" type="line"/>
      <point x="201" y="0" type="line"/>
      <point x="292" y="0" type="line"/>
      <point x="416" y="700" type="line"/>
    </contour>
    <contour>
      <point x="456" y="0" type="line" smooth="yes"/>
      <point x="606" y="0"/>
      <point x="709" y="103"/>
      <point x="709" y="226" type="curve" smooth="yes"/>
      <point x="709" y="304"/>
      <point x="664" y="347"/>
      <point x="615" y="370" type="curve"/>
      <point x="612" y="353" type="line"/>
      <point x="690" y="375"/>
      <point x="750" y="449"/>
      <point x="750" y="541" type="curve" smooth="yes"/>
      <point x="750" y="636"/>
      <point x="686" y="700"/>
      <point x="580" y="700" type="curve" smooth="yes"/>
      <point x="359" y="700" type="line"/>
      <point x="344" y="619" type="line"/>
      <point x="558" y="619" type="line" smooth="yes"/>
      <point x="622" y="619"/>
      <point x="660" y="585"/>
      <point x="660" y="527" type="curve" smooth="yes"/>
      <point x="660" y="463"/>
      <point x="615" y="400"/>
      <point x="524" y="400" type="curve" smooth="yes"/>
      <point x="305" y="400" type="line"/>
      <point x="291" y="319" type="line"/>
      <point x="507" y="319" type="line" smooth="yes"/>
      <point x="572" y="319"/>
      <point x="617" y="285"/>
      <point x="617" y="218" type="curve" smooth="yes"/>
      <point x="617" y="142"/>
      <point x="559" y="81"/>
      <point x="465" y="81" type="curve" smooth="yes"/>
      <point x="250" y="81" type="line"/>
      <point x="235" y="0" type="line"/>
    </contour>
    <contour>
      <point x="398" y="700" type="line"/>
      <point x="307" y="700" type="line" smooth="yes"/>
      <point x="127" y="700"/>
      <point x="58" y="581"/>
      <point x="58" y="478" type="curve" smooth="yes"/>
      <point x="58" y="445"/>
      <point x="66" y="416"/>
      <point x="76" y="391" type="curve"/>
      <point x="164" y="396" type="line"/>
      <point x="152" y="422"/>
      <point x="146" y="449"/>
      <point x="146" y="477" type="curve" smooth="yes"/>
      <point x="146" y="550"/>
      <point x="183" y="618"/>
      <point x="296" y="618" type="curve" smooth="yes"/>
      <point x="384" y="618" type="line"/>
    </contour>
  </outline>
</glyph>
<glyph name="Dhook" format="2">
  <advance width="760"/>
  <unicode hex="018A"/>
  <outline>
    <contour>
      <point x="398" y="700" type="line"/>
      <point x="307" y="700" type="line" smooth="yes"/>
      <point x="127" y="700"/>
      <point x="58" y="581"/>
      <point x="58" y="478" type="curve" smooth="yes"/>
      <point x="58" y="445"/>
      <point x="66" y="416"/>
      <point x="76" y="391" type="curve"/>
      <point x="164" y="396" type="line"/>
      <point x="152" y="422"/>
      <point x="146" y="449"/>
      <point x="146" y="477" type="curve" smooth="yes"/>
      <point x="146" y="550"/>
      <point x="183" y="618"/>
      <point x="296" y="618" type="curve" smooth="yes"/>
      <point x="384" y="618" type="line"/>
    </contour>
    <contour>
      <point x="202" y="0" type="line"/>
      <point x="293" y="0" type="line"/>
      <point x="417" y="700" type="line"/>
      <point x="326" y="700" type="line"/>
    </contour>
    <contour>
      <point x="250" y="82" type="line"/>
      <point x="235" y="0" type="line"/>
      <point x="347" y="0" type="line" smooth="yes"/>
      <point x="590" y="0"/>
      <point x="734" y="176"/>
      <point x="734" y="401" type="curve" smooth="yes"/>
      <point x="734" y="576"/>
      <point x="631" y="700"/>
      <point x="465" y="700" type="curve" smooth="yes"/>
      <point x="358" y="700" type="line"/>
      <point x="343" y="618" type="line"/>
      <point x="445" y="618" type="line" smooth="yes"/>
      <point x="575" y="618"/>
      <point x="642" y="534"/>
      <point x="642" y="396" type="curve" smooth="yes"/>
      <point x="642" y="222"/>
      <point x="541" y="82"/>
      <point x="354" y="82" type="curve" smooth="yes"/>
    </contour>
  </outline>
</glyph>
<glyph name="Schwa" format="2">
  <advance width="760"/>
  <unicode hex="018F"/>
  <outline>
    <contour>
      <point x="351" y="-12" type="curve" smooth="yes"/>
      <point x="587" y="-12"/>
      <point x="727" y="203"/>
      <point x="727" y="414" type="curve" smooth="yes"/>
      <point x="727" y="596"/>
      <point x="620" y="712"/>
      <point x="447" y="712" type="curve" smooth="yes"/>
      <point x="301" y="712"/>
      <point x="181" y="631"/>
      <point x="118" y="511" type="curve"/>
      <point x="195" y="476" type="line"/>
      <point x="241" y="562"/>
      <point x="327" y="632"/>
      <point x="439" y="632" type="curve" smooth="yes"/>
      <point x="565" y="632"/>
      <point x="634" y="548"/>
      <point x="634" y="412" type="curve" smooth="yes"/>
      <point x="634" y="251"/>
      <point x="536" y="69"/>
      <point x="360" y="69" type="curve" smooth="yes"/>
      <point x="238" y="69"/>
      <point x="163" y="152"/>
      <point x="163" y="282" type="curve" smooth="yes"/>
      <point x="163" y="306"/>
      <point x="168" y="329"/>
      <point x="172" y="354" type="curve"/>
      <point x="148" y="291" type="line"/>
      <point x="651" y="291" type="line"/>
      <point x="664" y="366" type="line"/>
      <point x="80" y="366" type="line"/>
      <point x="79" y="358" type="line" smooth="yes"/>
      <point x="75" y="332"/>
      <point x="73" y="310"/>
      <point x="73" y="284" type="curve" smooth="yes"/>
      <point x="73" y="115"/>
      <point x="175" y="-12"/>
    </contour>
  </outline>
</glyph>
<glyph name="Khook" format="2">
  <advance width="680"/>
  <unicode hex="0198"/>
  <outline>
    <contour>
      <point x="194" y="700" type="line"/>
      <point x="71" y="0" type="line"/>
      <point x="162" y="0" type="line"/>
      <point x="285" y="700" type="line"/>
    </contour>
    <contour>
      <point x="281" y="348" type="line"/>
      <point x="483" y="0" type="line"/>
      <point x="587" y="0" type="line"/>
      <point x="345" y="416" type="line"/>
    </contour>
    <contour>
      <point x="567" y="599" type="line" smooth="yes"/>
      <point x="587" y="619"/>
      <point x="605" y="627"/>
      <point x="625" y="627" type="curve" smooth="yes"/>
      <point x="647" y="627"/>
      <point x="669" y="618"/>
      <point x="684" y="610" type="curve"/>
      <point x="702" y="693" type="line"/>
      <point x="686" y="703"/>
      <point x="654" y="712"/>
      <point x="626" y="712" type="curve" smooth="yes"/>
      <point x="585" y="712"/>
      <point x="545" y="698"/>
      <point x="511" y="662" type="curve" smooth="yes"/>
      <point x="167" y="301" type="line"/>
      <point x="153" y="182" type="line"/>
      <point x="315" y="341" type="line"/>
      <point x="339" y="361" type="line"/>
    </contour>
  </outline>
</glyph>
<glyph name="khook" format="2">
  <advance width="600"/>
  <unicode hex="0199"/>
  <outline>
    <contour>
      <point x="138" y="236" type="line"/>
      <point x="132" y="144" type="line"/>
      <point x="277" y="255" type="line"/>
      <point x="312" y="275" type="line"/>
      <point x="595" y="490" type="line"/>
      <point x="477" y="490" type="line"/>
    </contour>
    <contour>
      <point x="243" y="266" type="line"/>
      <point x="429" y="0" type="line"/>
      <point x="528" y="0" type="line"/>
      <point x="308" y="318" type="line"/>
    </contour>
    <contour>
      <point x="251" y="576" type="line" smooth="yes"/>
      <point x="257" y="613"/>
      <point x="283" y="629"/>
      <point x="311" y="629" type="curve" smooth="yes"/>
      <point x="332" y="629"/>
      <point x="348" y="623"/>
      <point x="366" y="614" type="curve"/>
      <point x="382" y="687" type="line"/>
      <point x="358" y="699"/>
      <point x="336" y="706"/>
      <point x="306" y="706" type="curve" smooth="yes"/>
      <point x="238" y="706"/>
      <point x="179" y="663"/>
      <point x="165" y="586" type="curve" smooth="yes"/>
      <point x="62" y="0" type="line"/>
      <point x="150" y="0" type="line"/>
    </contour>
  </outline>
</glyph>
<glyph name="Nhookleft" format="2">
  <advance width="760"/>
  <unicode hex="019D"/>
  <outline>
    <contour>
      <point x="-79" y="-103" type="curve"/>
      <point x="-93" y="-182" type="line"/>
      <point x="-72" y="-189"/>
      <point x="-47" y="-192"/>
      <point x="-26" y="-192" type="curve" smooth="yes"/>
      <point x="56" y="-192"/>
      <point x="124" y="-150"/>
      <point x="139" y="-61" type="curve" smooth="yes"/>
      <point x="255" y="603" type="line"/>
      <point x="514" y="0" type="line"/>
      <point x="612" y="0" type="line"/>
      <point x="736" y="700" type="line"/>
      <point x="647" y="700" type="line"/>
      <point x="547" y="136" type="line"/>
      <point x="306" y="700" type="line"/>
      <point x="184" y="700" type="line"/>
      <point x="51" y="-51" type="line" smooth="yes"/>
      <point x="43" y="-96"/>
      <point x="10" y="-112"/>
      <point x="-30" y="-112" type="curve" smooth="yes"/>
      <point x="-44" y="-112"/>
      <point x="-61" y="-110"/>
    </contour>
  </outline>
</glyph>
<glyph name="yhook" format="2">
  <advance width="600"/>
  <unicode hex="01B4"/>
  <outline>
    <contour>
      <point x="224" y="-60" type="line"/>
      <point x="283" y="47" type="line"/>
      <point x="169" y="490" type="line"/>
      <point x="80" y="490" type="line"/>
    </contour>
    <contour>
      <point x="531" y="372" type="line" smooth="yes"/>
      <point x="554" y="408"/>
      <point x="569" y="426"/>
      <point x="589" y="426" type="curve" smooth="yes"/>
      <point x="602" y="426"/>
      <point x="614" y="421"/>
      <point x="623" y="415" type="curve"/>
      <point x="639" y="487" type="line"/>
      <point x="626" y="495"/>
      <point x="607" y="502"/>
      <point x="581" y="502" type="curve" smooth="yes"/>
      <point x="522" y="502"/>
      <point x="490" y="465"/>
      <point x="449" y="398" type="curve" smooth="yes"/>
      <point x="236" y="57" type="line"/>
      <point x="216" y="28" type="line"/>
      <point x="80" y="-180" type="line"/>
      <point x="180" y="-180" type="line"/>
    </contour>
  </outline>
</glyph>
<glyph name="Icaron" format="2">
  <advance width="350"/>
  <unicode hex="01CF"/>
  <outline>
    <contour>
      <point x="311" y="771" type="line"/>
      <point x="441" y="892" type="line"/>
      <point x="365" y="892" type="line"/>
      <point x="245" y="808" type="line"/>
      <point x="297" y="808" type="line"/>
      <point x="207" y="892" type="line"/>
      <point x="135" y="892" type="line"/>
      <point x="221" y="771" type="line"/>
    </contour>
    <component base="I"/>
  </outline>
</glyph>
<glyph name="icaron" format="2">
  <advance width="350"/>
  <unicode hex="01D0"/>
  <outline>
    <contour>
      <point x="279" y="570" type="line"/>
      <point x="400" y="700" type="line"/>
      <point x="327" y="700" type="line"/>
      <point x="211" y="599" type="line"/>
      <point x="263" y="599" type="line"/>
      <point x="181" y="700" type="line"/>
      <point x="114" y="700" type="line"/>
      <point x="191" y="570" type="line"/>
    </contour>
    <component base="dotlessi"/>
  </outline>
</glyph>
<glyph name="eturned" format="2">
  <advance width="600"/>
  <unicode hex="01DD"/>
  <outline>
    <contour>
      <point x="544" y="286" type="curve" smooth="yes"/>
      <point x="544" y="418"/>
      <point x="459" y="502"/>
      <point x="329" y="502" type="curve" smooth="yes"/>
      <point x="220" y="502"/>
      <point x="127" y="443"/>
      <point x="86" y="352" type="curve"/>
      <point x="165" y="323" type="line"/>
      <point x="195" y="388"/>
      <point x="250" y="432"/>
      <point x="323" y="432" type="curve" smooth="yes"/>
      <point x="408" y="432"/>
      <point x="456" y="378"/>
      <point x="456" y="277" type="curve" smooth="yes"/>
      <point x="456" y="179"/>
      <point x="397" y="58"/>
      <point x="280" y="58" type="curve" smooth="yes"/>
      <point x="194" y="58"/>
      <point x="142" y="114"/>
      <point x="142" y="197" type="curve" smooth="yes"/>
      <point x="142" y="213"/>
      <point x="144" y="230"/>
      <point x="148" y="248" type="curve"/>
      <point x="118" y="198" type="line"/>
      <point x="480" y="198" type="line"/>
      <point x="492" y="264" type="line"/>
      <point x="67" y="264" type="line"/>
      <point x="63" y="242" type="line" smooth="yes"/>
      <point x="60" y="228"/>
      <point x="59" y="213"/>
      <point x="59" y="199" type="curve" smooth="yes"/>
      <point x="59" y="91"/>
      <point x="132" y="-12"/>
      <point x="273" y="-12" type="curve" smooth="yes"/>
      <point x="433" y="-12"/>
      <point x="544" y="127"/>
    </contour>
  </outline>
</glyph>
<glyph name="oogonek" format="2">
  <advance width="600"/>
  <unicode hex="01EB"/>
  <outline>
    <contour>
      <point x="56" y="203" type="curve" smooth="yes"/>
      <point x="56" y="82"/>
      <point x="132" y="1"/>
      <point x="239" y="-11" type="curve"/>
      <point x="196" y="-36"/>
      <point x="157" y="-71"/>
      <point x="157" y="-123" type="curve" smooth="yes"/>
      <point x="157" y="-165"/>
      <point x="182" y="-197"/>
      <point x="252" y="-197" type="curve" smooth="yes"/>
      <point x="269" y="-197"/>
      <point x="297" y="-195"/>
      <point x="321" y="-189" type="curve"/>
      <point x="332" y="-129" type="line"/>
      <point x="314" y="-131"/>
      <point x="298" y="-134"/>
      <point x="280" y="-134" type="curve" smooth="yes"/>
      <point x="253" y="-134"/>
      <point x="235" y="-127"/>
      <point x="235" y="-106" type="curve" smooth="yes"/>
      <point x="235" y="-71"/>
      <point x="285" y="-25"/>
      <point x="343" y="-4" type="curve" smooth="yes"/>
      <point x="465" y="39"/>
      <point x="544" y="148"/>
      <point x="544" y="287" type="curve" smooth="yes"/>
      <point x="544" y="418"/>
      <point x="455" y="502"/>
      <point x="335" y="502" type="curve" smooth="yes"/>
      <point x="171" y="502"/>
      <point x="56" y="367"/>
    </contour>
    <contour>
      <point x="327" y="432" type="curve" smooth="yes"/>
      <point x="407" y="432"/>
      <point x="455" y="375"/>
      <point x="455" y="284" type="curve" smooth="yes"/>
      <point x="455" y="176"/>
      <point x="392" y="58"/>
      <point x="273" y="58" type="curve" smooth="yes"/>
      <point x="193" y="58"/>
      <point x="145" y="115"/>
      <point x="145" y="206" type="curve" smooth="yes"/>
      <point x="145" y="314"/>
      <point x="208" y="432"/>
    </contour>
  </outline>
</glyph>
<glyph name="oopen" format="2">
  <advance width="600"/>
  <unicode hex="0254"/>
  <outline>
    <contour>
      <point x="82" y="358" type="curve"/>
      <point x="164" y="333" type="line"/>
      <point x="191" y="399"/>
      <point x="253" y="432"/>
      <point x="318" y="432" type="curve" smooth="yes"/>
      <point x="399" y="432"/>
      <point x="446" y="373"/>
      <point x="446" y="285" type="curve" smooth="yes"/>
      <point x="446" y="195"/>
      <point x="392" y="58"/>
      <point x="270" y="58" type="curve" smooth="yes"/>
      <point x="199" y="58"/>
      <point x="144" y="100"/>
      <point x="134" y="172" type="curve"/>
      <point x="46" y="155" type="line"/>
      <point x="60" y="54"/>
      <point x="147" y="-12"/>
      <point x="260" y="-12" type="curve" smooth="yes"/>
      <point x="447" y="-12"/>
      <point x="535" y="150"/>
      <point x="535" y="285" type="curve" smooth="yes"/>
      <point x="535" y="417"/>
      <point x="449" y="502"/>
      <point x="325" y="502" type="curve" smooth="yes"/>
      <point x="214" y="502"/>
      <point x="124" y="449"/>
    </contour>
  </outline>
</glyph>
<glyph name="eopen" format="2">
  <advance width="600"/>
  <unicode hex="025B"/>
  <outline>
    <contour>
      <point x="513" y="144" type="curve"/>
      <point x="423" y="139" type="line"/>
      <point x="410" y="92"/>
      <point x="359" y="59"/>
      <point x="277" y="59" type="curve" smooth="yes"/>
      <point x="201" y="59"/>
      <point x="142" y="86"/>
      <point x="142" y="136" type="curve" smooth="yes"/>
      <point x="142" y="181"/>
      <point x="185" y="218"/>
      <point x="273" y="218" type="curve" smooth="yes"/>
      <point x="343" y="218" type="line"/>
      <point x="356" y="288" type="line"/>
      <point x="287" y="288" type="line" smooth="yes"/>
      <point x="229" y="288"/>
      <point x="192" y="307"/>
      <point x="192" y="346" type="curve" smooth="yes"/>
      <point x="192" y="391"/>
      <point x="241" y="431"/>
      <point x="328" y="431" type="curve" smooth="yes"/>
      <point x="409" y="431"/>
      <point x="462" y="402"/>
      <point x="462" y="357" type="curve" smooth="yes"/>
      <point x="462" y="353"/>
      <point x="462" y="349"/>
      <point x="461" y="344" type="curve"/>
      <point x="540" y="337" type="line"/>
      <point x="543" y="347"/>
      <point x="544" y="356"/>
      <point x="544" y="366" type="curve" smooth="yes"/>
      <point x="544" y="451"/>
      <point x="457" y="502"/>
      <point x="336" y="502" type="curve" smooth="yes"/>
      <point x="194" y="502"/>
      <point x="103" y="431"/>
      <point x="103" y="352" type="curve" smooth="yes"/>
      <point x="103" y="297"/>
      <point x="152" y="269"/>
      <point x="194" y="257" type="curve"/>
      <point x="195" y="262" type="line"/>
      <point x="119" y="251"/>
      <point x="49" y="204"/>
      <point x="49" y="131" type="curve" smooth="yes"/>
      <point x="49" y="41"/>
      <point x="153" y="-12"/>
      <point x="271" y="-12" type="curve" smooth="yes"/>
      <point x="396" y="-12"/>
      <point x="495" y="37"/>
    </contour>
  </outline>
</glyph>
<glyph name="istroke" format="2">
  <advance width="350"/>
  <unicode hex="0268"/>
  <outline>
    <contour>
      <point x="313" y="264" type="line"/>
      <point x="325" y="332" type="line"/>
      <point x="55" y="332" type="line"/>
      <point x="43" y="264" type="line"/>
    </contour>
    <component base="i"/>
  </outline>
</glyph>
<glyph name="gravecmb" format="2">
  <advance width="600"/>
  <unicode hex="0300"/>
  <outline>
    <contour>
      <point x="382" y="700" type="line"/>
      <point x="422" y="570" type="line"/>
      <point x="360" y="570" type="line"/>
      <point x="303" y="700" type="line"/>
    </contour>
  </outline>
</glyph>
<glyph name="dieresiscmb" format="2">
  <advance width="600"/>
  <unicode hex="0308"/>
  <outline>
    <contour>
      <point x="241" y="700" type="line"/>
      <point x="223" y="597" type="line"/>
      <point x="319" y="597" type="line"/>
      <point x="337" y="700" type="line"/>
    </contour>
    <contour>
      <point x="422" y="700" type="line"/>
      <point x="404" y="597" type="line"/>
      <point x="500" y="597" type="line"/>
      <point x="518" y="700" type="line"/>
    </contour>
  </outline>
</glyph>
<glyph name="caroncmb" format="2">
  <advance width="600"/>
  <unicode hex="030C"/>
  <outline>
    <contour>
      <point x="404" y="570" type="line"/>
      <point x="528" y="700" type="line"/>
      <point x="455" y="700" type="line"/>
      <point x="336" y="599" type="line"/>
      <point x="388" y="599" type="line"/>
      <point x="303" y="700" type="line"/>
      <point x="236" y="700" type="line"/>
      <point x="316" y="570" type="line"/>
    </contour>
  </outline>
</glyph>
<glyph name="commaturnedabovecmb" format="2">
  <advance width="600"/>
  <unicode hex="0312"/>
  <outline>
    <contour>
      <point x="410" y="597" type="line"/>
      <point x="428" y="700" type="line"/>
      <point x="382" y="700" type="line"/>
      <point x="383" y="706" type="line" smooth="yes"/>
      <point x="388" y="737"/>
      <point x="409" y="756"/>
      <point x="450" y="756" type="curve"/>
      <point x="458" y="801" type="line"/>
      <point x="367" y="801"/>
      <point x="339" y="743"/>
      <point x="333" y="706" type="curve" smooth="yes"/>
      <point x="314" y="597" type="line"/>
    </contour>
  </outline>
</glyph>
<glyph name="horncmb" format="2">
  <advance width="600"/>
  <unicode hex="031B"/>
  <outline>
    <contour>
      <point x="378" y="576" type="line"/>
      <point x="379" y="570"/>
      <point x="379" y="564"/>
      <point x="379" y="558" type="curve" smooth="yes"/>
      <point x="379" y="508"/>
      <point x="366" y="490"/>
      <point x="325" y="490" type="curve" smooth="yes"/>
      <point x="261" y="490" type="line"/>
      <point x="251" y="434" type="line"/>
      <point x="325" y="434" type="line" smooth="yes"/>
      <point x="422" y="434"/>
      <point x="444" y="488"/>
      <point x="444" y="558" type="curve" smooth="yes"/>
      <point x="444" y="564"/>
      <point x="444" y="570"/>
      <point x="443" y="576" type="curve"/>
    </contour>
  </outline>
</glyph>
<glyph name="ogonekcmb" format="2">
  <advance width="600"/>
  <unicode hex="0328"/>
  <outline>
    <contour>
      <point x="235" y="-197" type="curve" smooth="yes"/>
      <point x="252" y="-197"/>
      <point x="280" y="-195"/>
      <point x="304" y="-189" type="curve"/>
      <point x="315" y="-129" type="line"/>
      <point x="297" y="-131"/>
      <point x="281" y="-134"/>
      <point x="263" y="-134" type="curve" smooth="yes"/>
      <point x="236" y="-134"/>
      <point x="218" y="-127"/>
      <point x="218" y="-106" type="curve" smooth="yes"/>
      <point x="218" y="-70"/>
      <point x="269" y="-31"/>
      <point x="325" y="0" type="curve"/>
      <point x="241" y="0" type="line"/>
      <point x="192" y="-26"/>
      <point x="140" y="-63"/>
      <point x="140" y="-123" type="curve" smooth="yes"/>
      <point x="140" y="-165"/>
      <point x="165" y="-197"/>
    </contour>
  </outline>
</glyph>
<glyph name="lmacrondot" format="2">
  <advance width="350"/>
  <unicode hex="1E39"/>
  <outline>
    <contour>
      <point x="139" y="776" type="line"/>
      <point x="401" y="776" type="line"/>
      <point x="413" y="844" type="line"/>
      <point x="151" y="844" type="line"/>
    </contour>
    <component base="l"/>
    <component base="dotbelowcmb" xOffset="-125"/>
  </outline>
</glyph>
<glyph name="rlinebelow" format="2">
  <advance width="350"/>
  <unicode hex="1E5F"/>
  <outline>
    <contour>
      <point x="-60" y="-152" type="line"/>
      <point x="148" y="-152" type="line"/>
      <point x="160" y="-86" type="line"/>
      <point x="-48" y="-86" type="line"/>
    </contour>
    <component base="r"/>
  </outline>
</glyph>
<glyph name="Germandbls" format="2">
  <advance width="760"/>
  <unicode hex="1E9E"/>
  <outline>
    <contour>
      <point x="190" y="700" type="line"/>
      <point x="66" y="0" type="line"/>
      <point x="157" y="0" type="line"/>
      <point x="281" y="700" type="line"/>
    </contour>
    <contour>
      <point x="729" y="618" type="line"/>
      <point x="744" y="700" type="line"/>
      <point x="225" y="700" type="line"/>
      <point x="210" y="618" type="line"/>
      <point x="685" y="618" type="line"/>
      <point x="649" y="649" type="line"/>
      <point x="354" y="418" type="line"/>
      <point x="343" y="353" type="line"/>
      <point x="465" y="353" type="line" smooth="yes"/>
      <point x="574" y="352"/>
      <point x="620" y="306"/>
      <point x="620" y="232" type="curve" smooth="yes"/>
      <point x="620" y="144"/>
      <point x="557" y="68"/>
      <point x="420" y="68" type="curve"/>
      <point x="380" y="68"/>
      <point x="331" y="74"/>
      <point x="283" y="92" type="curve"/>
      <point x="269" y="12" type="line"/>
      <point x="320" y="-7"/>
      <point x="373" y="-12"/>
      <point x="412" y="-12" type="curve"/>
      <point x="598" y="-12"/>
      <point x="713" y="102"/>
      <point x="713" y="240" type="curve" smooth="yes"/>
      <point x="713" y="352"/>
      <point x="633" y="430"/>
      <point x="491" y="430" type="curve" smooth="yes"/>
      <point x="413" y="430" type="line"/>
      <point x="452" y="403" type="line"/>
    </contour>
  </outline>
</glyph>
<glyph name="endash" format="2">
  <advance width="600"/>
  <unicode hex="2013"/>
  <outline>
    <contour>
      <point x="72" y="260" type="line"/>
      <point x="534" y="260" type="line"/>
      <point x="546" y="332" type="line"/>
      <point x="84" y="332" type="line"/>
    </contour>
  </outline>
</glyph>
<glyph name="quotedblbase" format="2">
  <advance width="600"/>
  <unicode hex="201E"/>
  <outline>
    <contour>
      <point x="147" y="135" type="line"/>
      <point x="123" y="0" type="line"/>
      <point x="180" y="0" type="line"/>
      <point x="178" y="-10" type="line" smooth="yes"/>
      <point x="170" y="-54"/>
      <point x="138" y="-81"/>
      <point x="90" y="-81" type="curve"/>
      <point x="81" y="-131" type="line"/>
      <point x="187" y="-131"/>
      <point x="227" y="-55"/>
      <point x="235" y="-10" type="curve" smooth="yes"/>
      <point x="261" y="135" type="line"/>
    </contour>
    <contour>
      <point x="327" y="135" type="line"/>
      <point x="303" y="0" type="line"/>
      <point x="360" y="0" type="line"/>
      <point x="358" y="-10" type="line" smooth="yes"/>
      <point x="350" y="-54"/>
      <point x="318" y="-81"/>
      <point x="270" y="-81" type="curve"/>
      <point x="261" y="-131" type="line"/>
      <point x="367" y="-131"/>
      <point x="407" y="-55"/>
      <point x="415" y="-10" type="curve" smooth="yes"/>
      <point x="441" y="135" type="line"/>
    </contour>
  </outline>
</glyph>
<glyph name="dagger" format="2">
  <advance width="350"/>
  <unicode hex="2020"/>
  <outline>
    <contour>
      <point x="147" y="290" type="line"/>
      <point x="219" y="290" type="line"/>
      <point x="291" y="700" type="line"/>
      <point x="219" y="700" type="line"/>
    </contour>
    <contour>
      <point x="100" y="591" type="line"/>
      <point x="88" y="524" type="line"/>
      <point x="360" y="524" type="line"/>
      <point x="372" y="591" type="line"/>
    </contour>
  </outline>
</glyph>
<glyph name="daggerdbl" format="2">
  <advance width="350"/>
  <unicode hex="2021"/>
  <outline>
    <contour>
      <point x="147" y="290" type="line"/>
      <point x="219" y="290" type="line"/>
      <point x="291" y="700" type="line"/>
      <point x="219" y="700" type="line"/>
    </contour>
    <contour>
      <point x="103" y="606" type="line"/>
      <point x="91" y="539" type="line"/>
      <point x="363" y="539" type="line"/>
      <point x="375" y="606" type="line"/>
    </contour>
    <contour>
      <point x="77" y="461" type="line"/>
      <point x="65" y="394" type="line"/>
      <point x="337" y="394" type="line"/>
      <point x="349" y="461" type="line"/>
    </contour>
  </outline>
</glyph>
<glyph name="bullet" format="2">
  <advance width="600"/>
  <unicode hex="2022"/>
  <outline>
    <contour>
      <point x="290" y="134" type="curve" smooth="yes"/>
      <point x="402" y="134"/>
      <point x="476" y="230"/>
      <point x="476" y="321" type="curve" smooth="yes"/>
      <point x="476" y="410"/>
      <point x="405" y="484"/>
      <point x="310" y="484" type="curve" smooth="yes"/>
      <point x="198" y="484"/>
      <point x="124" y="388"/>
      <point x="124" y="297" type="curve" smooth="yes"/>
      <point x="124" y="208"/>
      <point x="195" y="134"/>
    </contour>
  </outline>
</glyph>
<glyph name="minute" format="2">
  <advance width="350"/>
  <unicode hex="2032"/>
  <outline>
    <contour>
      <point x="222" y="700" type="line"/>
      <point x="123" y="412" type="line"/>
      <point x="193" y="412" type="line"/>
      <point x="335" y="700" type="line"/>
    </contour>
  </outline>
</glyph>
<glyph name="second" format="2">
  <advance width="350"/>
  <unicode hex="2033"/>
  <outline>
    <contour>
      <point x="144" y="700" type="line"/>
      <point x="46" y="412" type="line"/>
      <point x="111" y="412" type="line"/>
      <point x="251" y="700" type="line"/>
    </contour>
    <contour>
      <point x="306" y="700" type="line"/>
      <point x="208" y="412" type="line"/>
      <point x="273" y="412" type="line"/>
      <point x="413" y="700" type="line"/>
    </contour>
  </outline>
</glyph>
<glyph name="guilsinglleft" format="2">
  <advance width="350"/>
  <unicode hex="2039"/>
  <outline>
    <contour>
      <point x="335" y="450" type="line"/>
      <point x="233" y="450" type="line"/>
      <point x="63" y="276" type="line"/>
      <point x="55" y="234" type="line"/>
      <point x="165" y="60" type="line"/>
      <point x="255" y="60" type="line"/>
      <point x="116" y="280" type="line"/>
      <point x="120" y="230" type="line"/>
    </contour>
  </outline>
</glyph>
<glyph name="interrobang" format="2">
  <advance width="600"/>
  <unicode hex="203D"/>
  <outline>
    <contour>
      <point x="427" y="700" type="line"/>
      <point x="328" y="700" type="line"/>
      <point x="258" y="227" type="line"/>
      <point x="321" y="227" type="line"/>
    </contour>
    <contour>
      <point x="267" y="227" type="line"/>
      <point x="338" y="227" type="line"/>
      <point x="340" y="238" type="line" smooth="yes"/>
      <point x="348" y="282"/>
      <point x="376" y="321"/>
      <point x="436" y="351" type="curve" smooth="yes"/>
      <point x="514" y="390"/>
      <point x="570" y="455"/>
      <point x="570" y="547" type="curve" smooth="yes"/>
      <point x="570" y="653"/>
      <point x="481" y="712"/>
      <point x="365" y="712" type="curve" smooth="yes"/>
      <point x="235" y="712"/>
      <point x="150" y="650"/>
      <point x="109" y="544" type="curve"/>
      <point x="193" y="521" type="line"/>
      <point x="224" y="597"/>
      <point x="268" y="635"/>
      <point x="358" y="635" type="curve" smooth="yes"/>
      <point x="440" y="635"/>
      <point x="479" y="598"/>
      <point x="479" y="543" type="curve" smooth="yes"/>
      <point x="479" y="489"/>
      <point x="458" y="450"/>
      <point x="388" y="409" type="curve" smooth="yes"/>
      <point x="306" y="361"/>
      <point x="283" y="320"/>
      <point x="270" y="245" type="curve" smooth="yes"/>
    </contour>
    <contour>
      <point x="205" y="0" type="line"/>
      <point x="310" y="0" type="line"/>
      <point x="332" y="124" type="line"/>
      <point x="227" y="124" type="line"/>
    </contour>
  </outline>
</glyph>
<glyph name="naira" format="2">
  <advance width="680"/>
  <unicode hex="20A6"/>
  <outline>
    <contour>
      <point x="69" y="400" type="line"/>
      <point x="183" y="400" type="line"/>
      <point x="195" y="470" type="line"/>
      <point x="81" y="470" type="line"/>
    </contour>
    <contour>
      <point x="524" y="255" type="line"/>
      <point x="640" y="255" type="line"/>
      <point x="653" y="325" type="line"/>
      <point x="537" y="325" type="line"/>
    </contour>
    <contour>
      <point x="350" y="400" type="line"/>
      <point x="666" y="400" type="line"/>
      <point x="678" y="470" type="line"/>
      <point x="325" y="470" type="line"/>
    </contour>
    <contour>
      <point x="43" y="255" type="line"/>
      <point x="400" y="255" type="line"/>
      <point x="374" y="325" type="line"/>
      <point x="56" y="325" type="line"/>
    </contour>
    <contour>
      <point x="495" y="40" type="line"/>
      <point x="302" y="700" type="line"/>
      <point x="195" y="700" type="line"/>
      <point x="71" y="0" type="line"/>
      <point x="151" y="0" type="line"/>
      <point x="267" y="657" type="line"/>
      <point x="239" y="657" type="line"/>
      <point x="431" y="0" type="line"/>
      <point x="518" y="0" type="line"/>
      <point x="642" y="700" type="line"/>
      <point x="562" y="700" type="line"/>
      <point x="445" y="40" type="line"/>
    </contour>
  </outline>
</glyph>
<glyph name="newsheqel" format="2">
  <advance width="760"/>
  <unicode hex="20AA"/>
  <outline>
    <contour>
      <point x="393" y="700" type="line" smooth="yes"/>
      <point x="522" y="700"/>
      <point x="568" y="635"/>
      <point x="548" y="518" type="curve" smooth="yes"/>
      <point x="489" y="184" type="line"/>
      <point x="407" y="184" type="line"/>
      <point x="465" y="516" type="line" smooth="yes"/>
      <point x="477" y="583"/>
      <point x="457" y="622"/>
      <point x="377" y="622" type="curve" smooth="yes"/>
      <point x="252" y="622" type="line"/>
      <point x="142" y="0" type="line"/>
      <point x="58" y="0" type="line"/>
      <point x="182" y="700" type="line"/>
    </contour>
    <contour>
      <point x="404" y="0" type="line" smooth="yes"/>
      <point x="275" y="0"/>
      <point x="229" y="66"/>
      <point x="250" y="183" type="curve" smooth="yes"/>
      <point x="308" y="516" type="line"/>
      <point x="390" y="516" type="line"/>
      <point x="332" y="184" type="line" smooth="yes"/>
      <point x="320" y="117"/>
      <point x="340" y="78"/>
      <point x="420" y="78" type="curve" smooth="yes"/>
      <point x="545" y="78" type="line"/>
      <point x="655" y="700" type="line"/>
      <point x="739" y="700" type="line"/>
      <point x="615" y="0" type="line"/>
    </contour>
  </outline>
</glyph>
<glyph name="manat" format="2">
  <advance width="600"/>
  <unicode hex="20BC"/>
  <outline>
    <contour>
      <point x="349" y="748" type="line"/>
      <point x="255" y="216" type="line"/>
      <point x="335" y="216" type="line"/>
      <point x="429" y="748" type="line"/>
    </contour>
    <contour>
      <point x="565" y="419" type="line" smooth="yes"/>
      <point x="568" y="438"/>
      <point x="570" y="456"/>
      <point x="570" y="474" type="curve" smooth="yes"/>
      <point x="570" y="584"/>
      <point x="504" y="670"/>
      <point x="366" y="670" type="curve" smooth="yes"/>
      <point x="216" y="670"/>
      <point x="122" y="567"/>
      <point x="99" y="435" type="curve" smooth="yes"/>
      <point x="23" y="0" type="line"/>
      <point x="107" y="0" type="line"/>
      <point x="182" y="425" type="line" smooth="yes"/>
      <point x="199" y="520"/>
      <point x="254" y="587"/>
      <point x="354" y="587" type="curve" smooth="yes"/>
      <point x="442" y="587"/>
      <point x="484" y="537"/>
      <point x="484" y="461" type="curve" smooth="yes"/>
      <point x="484" y="446"/>
      <point x="483" y="431"/>
      <point x="480" y="415" type="curve" smooth="yes"/>
      <point x="407" y="0" type="line"/>
      <point x="491" y="0" type="line"/>
    </contour>
  </outline>
</glyph>
<glyph name="trademark" format="2">
  <advance width="760"/>
  <unicode hex="2122"/>
  <outline>
    <contour>
      <point x="203" y="677" type="line"/>
      <point x="269" y="677" type="line"/>
      <point x="213" y="350" type="line"/>
      <point x="146" y="350" type="line"/>
    </contour>
    <contour>
      <point x="92" y="642" type="line"/>
      <point x="102" y="700" type="line"/>
      <point x="379" y="700" type="line"/>
      <point x="369" y="642" type="line"/>
    </contour>
    <contour>
      <point x="474" y="657" type="line"/>
      <point x="530" y="350" type="line"/>
      <point x="560" y="350" type="line"/>
      <point x="723" y="656" type="line"/>
      <point x="707" y="656" type="line"/>
      <point x="654" y="350" type="line"/>
      <point x="718" y="350" type="line"/>
      <point x="779" y="700" type="line"/>
      <point x="687" y="700" type="line"/>
      <point x="539" y="420" type="line"/>
      <point x="572" y="417" type="line"/>
      <point x="523" y="700" type="line"/>
      <point x="435" y="700" type="line"/>
      <point x="374" y="350" type="line"/>
      <point x="436" y="350" type="line"/>
      <point x="490" y="657" type="line"/>
    </contour>
  </outline>
</glyph>
<glyph name="onetenth" format="2">
  <advance width="760"/>
  <unicode hex="2152"/>
  <outline>
    <contour>
      <point x="335" y="0" type="line"/>
      <point x="400" y="0" type="line"/>
      <point x="448" y="274" type="line"/>
      <point x="389" y="274" type="line"/>
      <point x="381" y="226"/>
      <point x="365" y="212"/>
      <point x="304" y="212" type="curve"/>
      <point x="296" y="163" type="line"/>
      <point x="402" y="163" type="line"/>
      <point x="371" y="205" type="line"/>
    </contour>
    <contour>
      <point x="569" y="-5" type="curve" smooth="yes"/>
      <point x="633" y="-5"/>
      <point x="676" y="47"/>
      <point x="689" y="121" type="curve" smooth="yes"/>
      <point x="707" y="224"/>
      <point x="668" y="278"/>
      <point x="600" y="278" type="curve" smooth="yes"/>
      <point x="536" y="278"/>
      <point x="493" y="227"/>
      <point x="480" y="153" type="curve" smooth="yes"/>
      <point x="462" y="50"/>
      <point x="501" y="-5"/>
    </contour>
    <contour>
      <point x="153" y="386" type="line"/>
      <point x="220" y="386" type="line"/>
      <point x="275" y="700" type="line"/>
      <point x="216" y="700" type="line"/>
      <point x="207" y="646"/>
      <point x="188" y="629"/>
      <point x="118" y="629" type="curve"/>
      <point x="109" y="580" type="line"/>
      <point x="227" y="580" type="line"/>
      <point x="194" y="621" type="line"/>
    </contour>
    <contour>
      <point x="37" y="0" type="line"/>
      <point x="110" y="0" type="line"/>
      <point x="590" y="700" type="line"/>
      <point x="517" y="700" type="line"/>
    </contour>
    <contour>
      <point x="573" y="48" type="curve" smooth="yes"/>
      <point x="542" y="48"/>
      <point x="529" y="81"/>
      <point x="540" y="144" type="curve" smooth="yes"/>
      <point x="549" y="193"/>
      <point x="570" y="226"/>
      <point x="599" y="226" type="curve" smooth="yes"/>
      <point x="629" y="226"/>
      <point x="639" y="193"/>
      <point x="628" y="130" type="curve" smooth="yes"/>
      <point x="619" y="81"/>
      <point x="601" y="48"/>
    </contour>
  </outline>
</glyph>
<glyph name="notequal" format="2">
  <advance width="600"/>
  <unicode hex="2260"/>
  <outline>
    <contour>
      <point x="82" y="92" type="line"/>
      <point x="172" y="92" type="line"/>
      <point x="550" y="588" type="line"/>
      <point x="460" y="588" type="line"/>
    </contour>
    <component base="equal" identifier="C3B4B6E3"/>
  </outline>
</glyph>
<glyph name="onesanscircled" format="2">
  <advance width="760"/>
  <unicode hex="2780"/>
  <outline>
    <contour>
      <point x="417" y="546" type="line"/>
      <point x="405" y="478"/>
      <point x="386" y="457"/>
      <point x="293" y="457" type="curve"/>
      <point x="283" y="403" type="line"/>
      <point x="382" y="403" type="line"/>
      <point x="338" y="154" type="line"/>
      <point x="413" y="154" type="line"/>
      <point x="483" y="546" type="line"/>
    </contour>
    <component base="circlewhite" identifier="4849C6F3"/>
  </outline>
</glyph>
<glyph name="threesanscircled" format="2">
  <advance width="760"/>
  <unicode hex="2782"/>
  <outline>
    <contour>
      <point x="242" y="281" type="line"/>
      <point x="239" y="270"/>
      <point x="238" y="260"/>
      <point x="238" y="250" type="curve" smooth="yes"/>
      <point x="238" y="182"/>
      <point x="295" y="149"/>
      <point x="368" y="149" type="curve" smooth="yes"/>
      <point x="461" y="149"/>
      <point x="528" y="206"/>
      <point x="528" y="283" type="curve" smooth="yes"/>
      <point x="528" y="320"/>
      <point x="507" y="346"/>
      <point x="471" y="357" type="curve"/>
      <point x="509" y="368"/>
      <point x="548" y="396"/>
      <point x="548" y="452" type="curve" smooth="yes"/>
      <point x="548" y="509"/>
      <point x="505" y="553"/>
      <point x="426" y="553" type="curve" smooth="yes"/>
      <point x="347" y="553"/>
      <point x="279" y="508"/>
      <point x="272" y="428" type="curve"/>
      <point x="347" y="432" type="line"/>
      <point x="349" y="468"/>
      <point x="379" y="493"/>
      <point x="420" y="493" type="curve" smooth="yes"/>
      <point x="458" y="493"/>
      <point x="472" y="470"/>
      <point x="472" y="446" type="curve" smooth="yes"/>
      <point x="472" y="418"/>
      <point x="453" y="387"/>
      <point x="405" y="387" type="curve" smooth="yes"/>
      <point x="372" y="387" type="line"/>
      <point x="362" y="327" type="line"/>
      <point x="392" y="327" type="line" smooth="yes"/>
      <point x="434" y="327"/>
      <point x="453" y="304"/>
      <point x="453" y="276" type="curve" smooth="yes"/>
      <point x="453" y="243"/>
      <point x="426" y="209"/>
      <point x="375" y="209" type="curve" smooth="yes"/>
      <point x="333" y="209"/>
      <point x="313" y="232"/>
      <point x="313" y="258" type="curve" smooth="yes"/>
      <point x="313" y="264"/>
      <point x="314" y="270"/>
      <point x="316" y="276" type="curve"/>
    </contour>
    <component base="circlewhite" identifier="459C6775"/>
  </outline>
</glyph>
<glyph name="foursanscircled" format="2">
  <advance width="760"/>
  <unicode hex="2783"/>
  <outline>
    <contour>
      <point x="516" y="546" type="line"/>
      <point x="435" y="546" type="line"/>
      <point x="219" y="308" type="line"/>
      <point x="207" y="245" type="line"/>
      <point x="389" y="245" type="line"/>
      <point x="373" y="154" type="line"/>
      <point x="446" y="154" type="line"/>
      <point x="462" y="245" type="line"/>
      <point x="529" y="245" type="line"/>
      <point x="540" y="306" type="line"/>
      <point x="473" y="306" type="line"/>
    </contour>
    <contour>
      <point x="297" y="306" type="line"/>
      <point x="425" y="446" type="line"/>
      <point x="400" y="306" type="line"/>
    </contour>
    <component base="circlewhite" identifier="B1B141BA"/>
  </outline>
</glyph>
<glyph name="eightsanscircled" format="2">
  <advance width="760"/>
  <unicode hex="2787"/>
  <outline>
    <contour>
      <point x="529" y="281" type="curve" smooth="yes"/>
      <point x="529" y="321"/>
      <point x="505" y="347"/>
      <point x="471" y="360" type="curve"/>
      <point x="513" y="373"/>
      <point x="549" y="405"/>
      <point x="549" y="456" type="curve" smooth="yes"/>
      <point x="549" y="512"/>
      <point x="503" y="552"/>
      <point x="425" y="552" type="curve" smooth="yes"/>
      <point x="328" y="552"/>
      <point x="279" y="489"/>
      <point x="279" y="435" type="curve" smooth="yes"/>
      <point x="279" y="400"/>
      <point x="299" y="377"/>
      <point x="326" y="366" type="curve"/>
      <point x="276" y="351"/>
      <point x="237" y="312"/>
      <point x="237" y="253" type="curve" smooth="yes"/>
      <point x="237" y="191"/>
      <point x="288" y="148"/>
      <point x="368" y="148" type="curve" smooth="yes"/>
      <point x="472" y="148"/>
      <point x="529" y="218"/>
    </contour>
    <contour>
      <point x="350" y="436" type="curve" smooth="yes"/>
      <point x="350" y="467"/>
      <point x="379" y="494"/>
      <point x="420" y="494" type="curve" smooth="yes"/>
      <point x="454" y="494"/>
      <point x="476" y="476"/>
      <point x="476" y="449" type="curve" smooth="yes"/>
      <point x="476" y="418"/>
      <point x="447" y="390"/>
      <point x="406" y="390" type="curve" smooth="yes"/>
      <point x="372" y="390"/>
      <point x="350" y="408"/>
    </contour>
    <contour>
      <point x="455" y="281" type="curve" smooth="yes"/>
      <point x="455" y="249"/>
      <point x="431" y="206"/>
      <point x="375" y="206" type="curve" smooth="yes"/>
      <point x="335" y="206"/>
      <point x="311" y="228"/>
      <point x="311" y="261" type="curve" smooth="yes"/>
      <point x="311" y="293"/>
      <point x="334" y="334"/>
      <point x="390" y="334" type="curve" smooth="yes"/>
      <point x="430" y="334"/>
      <point x="455" y="314"/>
    </contour>
    <component base="circlewhite" identifier="1EA4FBC9"/>
  </outline>
</glyph>
<glyph name="tensanscircled" format="2">
  <advance width="760"/>
  <unicode hex="2789"/>
  <outline>
    <contour>
      <point x="513" y="552" type="curve" smooth="yes"/>
      <point x="393" y="552"/>
      <point x="341" y="414"/>
      <point x="341" y="290" type="curve" smooth="yes"/>
      <point x="341" y="199"/>
      <point x="380" y="147"/>
      <point x="453" y="147" type="curve" smooth="yes"/>
      <point x="573" y="147"/>
      <point x="626" y="284"/>
      <point x="626" y="408" type="curve" smooth="yes"/>
      <point x="626" y="499"/>
      <point x="586" y="552"/>
    </contour>
    <contour>
      <point x="265" y="546" type="line"/>
      <point x="254" y="485"/>
      <point x="231" y="464"/>
      <point x="161" y="464" type="curve"/>
      <point x="152" y="410" type="line"/>
      <point x="232" y="410" type="line"/>
      <point x="186" y="154" type="line"/>
      <point x="261" y="154" type="line"/>
      <point x="331" y="546" type="line"/>
    </contour>
    <contour>
      <point x="415" y="286" type="curve" smooth="yes"/>
      <point x="415" y="370"/>
      <point x="440" y="490"/>
      <point x="506" y="490" type="curve" smooth="yes"/>
      <point x="537" y="490"/>
      <point x="551" y="463"/>
      <point x="551" y="414" type="curve" smooth="yes"/>
      <point x="551" y="330"/>
      <point x="526" y="208"/>
      <point x="460" y="208" type="curve" smooth="yes"/>
      <point x="429" y="208"/>
      <point x="415" y="237"/>
    </contour>
    <component base="circlewhite" identifier="667CE569"/>
  </outline>
</glyph>
<glyph name="onesansnegativecircled" format="2">
  <advance width="760"/>
  <unicode hex="278A"/>
  <outline>
    <contour>
      <point x="417" y="546" type="curve"/>
      <point x="483" y="546" type="line"/>
      <point x="413" y="154" type="line"/>
      <point x="338" y="154" type="line"/>
      <point x="382" y="403" type="line"/>
      <point x="283" y="403" type="line"/>
      <point x="293" y="457" type="line"/>
      <point x="386" y="457"/>
      <point x="405" y="478"/>
    </contour>
    <component base="circleblack" identifier="243C06F4"/>
  </outline>
</glyph>
<glyph name="twosansnegativecircled" format="2">
  <advance width="760"/>
  <unicode hex="278B"/>
  <outline>
    <contour>
      <point x="238" y="215" type="line"/>
      <point x="407" y="339"/>
      <point x="470" y="373"/>
      <point x="470" y="434" type="curve" smooth="yes"/>
      <point x="470" y="468"/>
      <point x="449" y="489"/>
      <point x="414" y="489" type="curve" smooth="yes"/>
      <point x="361" y="489"/>
      <point x="343" y="443"/>
      <point x="343" y="420" type="curve" smooth="yes"/>
      <point x="343" y="412"/>
      <point x="345" y="403"/>
      <point x="349" y="394" type="curve"/>
      <point x="281" y="387" type="line"/>
      <point x="275" y="398"/>
      <point x="273" y="409"/>
      <point x="273" y="421" type="curve" smooth="yes"/>
      <point x="273" y="474"/>
      <point x="316" y="552"/>
      <point x="422" y="552" type="curve" smooth="yes"/>
      <point x="512" y="552"/>
      <point x="545" y="499"/>
      <point x="545" y="444" type="curve" smooth="yes"/>
      <point x="545" y="359"/>
      <point x="472" y="308"/>
      <point x="338" y="218" type="curve"/>
      <point x="509" y="218" type="line"/>
      <point x="498" y="154" type="line"/>
      <point x="227" y="154" type="line"/>
    </contour>
    <component base="circleblack" identifier="E4FA5548"/>
  </outline>
</glyph>
<glyph name="fivesansnegativecircled" format="2">
  <advance width="760"/>
  <unicode hex="278E"/>
  <outline>
    <contour>
      <point x="528" y="312" type="curve" smooth="yes"/>
      <point x="528" y="222"/>
      <point x="466" y="148"/>
      <point x="371" y="148" type="curve" smooth="yes"/>
      <point x="293" y="148"/>
      <point x="242" y="190"/>
      <point x="242" y="259" type="curve" smooth="yes"/>
      <point x="242" y="266"/>
      <point x="243" y="273"/>
      <point x="244" y="279" type="curve"/>
      <point x="324" y="269" type="line"/>
      <point x="318" y="235"/>
      <point x="339" y="207"/>
      <point x="376" y="207" type="curve" smooth="yes"/>
      <point x="429" y="207"/>
      <point x="453" y="260"/>
      <point x="453" y="304" type="curve" smooth="yes"/>
      <point x="453" y="341"/>
      <point x="435" y="363"/>
      <point x="402" y="363" type="curve" smooth="yes"/>
      <point x="374" y="363"/>
      <point x="351" y="346"/>
      <point x="335" y="319" type="curve"/>
      <point x="268" y="324" type="line"/>
      <point x="326" y="546" type="line"/>
      <point x="559" y="546" type="line"/>
      <point x="548" y="484" type="line"/>
      <point x="376" y="484" type="line"/>
      <point x="353" y="395" type="line"/>
      <point x="373" y="409"/>
      <point x="398" y="419"/>
      <point x="428" y="419" type="curve" smooth="yes"/>
      <point x="493" y="419"/>
      <point x="528" y="377"/>
    </contour>
    <component base="circleblack" xOffset="3" yOffset="-1" identifier="CEA7729A"/>
  </outline>
</glyph>
<glyph name="sixsansnegativecircled" format="2">
  <advance width="760"/>
  <unicode hex="278F"/>
  <outline>
    <contour>
      <point x="363" y="148" type="curve" smooth="yes"/>
      <point x="283" y="148"/>
      <point x="241" y="197"/>
      <point x="241" y="275" type="curve" smooth="yes"/>
      <point x="241" y="295"/>
      <point x="243" y="317"/>
      <point x="248" y="344" type="curve" smooth="yes"/>
      <point x="270" y="470"/>
      <point x="346" y="551"/>
      <point x="437" y="551" type="curve" smooth="yes"/>
      <point x="507" y="551"/>
      <point x="543" y="510"/>
      <point x="543" y="454" type="curve" smooth="yes"/>
      <point x="543" y="447"/>
      <point x="542" y="439"/>
      <point x="541" y="435" type="curve"/>
      <point x="470" y="443" type="line"/>
      <point x="475" y="472"/>
      <point x="456" y="490"/>
      <point x="429" y="490" type="curve" smooth="yes"/>
      <point x="388" y="490"/>
      <point x="349" y="451"/>
      <point x="332" y="380" type="curve"/>
      <point x="355" y="402"/>
      <point x="386" y="414"/>
      <point x="419" y="414" type="curve" smooth="yes"/>
      <point x="478" y="414"/>
      <point x="524" y="375"/>
      <point x="524" y="308" type="curve" smooth="yes"/>
      <point x="524" y="234"/>
      <point x="467" y="148"/>
    </contour>
    <contour>
      <point x="315" y="267" type="curve" smooth="yes"/>
      <point x="315" y="233"/>
      <point x="332" y="207"/>
      <point x="369" y="207" type="curve" smooth="yes"/>
      <point x="417" y="207"/>
      <point x="447" y="251"/>
      <point x="447" y="297" type="curve" smooth="yes"/>
      <point x="447" y="331"/>
      <point x="431" y="357"/>
      <point x="394" y="357" type="curve" smooth="yes"/>
      <point x="346" y="357"/>
      <point x="315" y="313"/>
    </contour>
    <component base="circleblack" identifier="97F6B671"/>
  </outline>
</glyph>
<glyph name="sevensansnegativecircled" format="2">
  <advance width="760"/>
  <unicode hex="2790"/>
  <outline>
    <contour>
      <point x="300" y="546" type="line"/>
      <point x="595" y="546" type="line"/>
      <point x="588" y="508" type="line"/>
      <point x="499" y="399"/>
      <point x="400" y="284"/>
      <point x="367" y="154" type="curve"/>
      <point x="289" y="154" type="line"/>
      <point x="315" y="270"/>
      <point x="405" y="381"/>
      <point x="495" y="484" type="curve"/>
      <point x="360" y="484" type="line"/>
      <point x="346" y="404" type="line"/>
      <point x="275" y="404" type="line"/>
    </contour>
    <component base="circleblack" identifier="B1AF08D2"/>
  </outline>
</glyph>
<glyph name="R.alt1" format="2">
  <advance width="680"/>
  <outline>
    <contour>
      <point x="178" y="700" type="line"/>
      <point x="54" y="0" type="line"/>
      <point x="145" y="0" type="line"/>
      <point x="269" y="700" type="line"/>
    </contour>
    <contour>
      <point x="674" y="522" type="curve" smooth="yes"/>
      <point x="674" y="629"/>
      <point x="602" y="700"/>
      <point x="487" y="700" type="curve" smooth="yes"/>
      <point x="226" y="700" type="line"/>
      <point x="211" y="619" type="line"/>
      <point x="473" y="619" type="line" smooth="yes"/>
      <point x="541" y="619"/>
      <point x="582" y="584"/>
      <point x="582" y="516" type="curve" smooth="yes"/>
      <point x="582" y="447"/>
      <point x="539" y="373"/>
      <point x="429" y="373" type="curve" smooth="yes"/>
      <point x="163" y="373" type="line"/>
      <point x="149" y="293" type="line"/>
      <point x="464" y="293" type="line" smooth="yes"/>
      <point x="489" y="293"/>
      <point x="507" y="271"/>
      <point x="507" y="222" type="curve" smooth="yes"/>
      <point x="507" y="186"/>
      <point x="484" y="75"/>
      <point x="484" y="45" type="curve" smooth="yes"/>
      <point x="484" y="27"/>
      <point x="487" y="13"/>
      <point x="496" y="0" type="curve"/>
      <point x="587" y="0" type="line"/>
      <point x="589" y="11" type="line"/>
      <point x="581" y="19"/>
      <point x="578" y="35"/>
      <point x="578" y="54" type="curve" smooth="yes"/>
      <point x="578" y="93"/>
      <point x="596" y="189"/>
      <point x="596" y="221" type="curve" smooth="yes"/>
      <point x="596" y="279"/>
      <point x="564" y="324"/>
      <point x="500" y="339" type="curve"/>
      <point x="497" y="320" type="line"/>
      <point x="615" y="338"/>
      <point x="674" y="429"/>
    </contour>
  </outline>
</glyph>
<glyph name="backslash.uc" format="2">
  <advance width="600"/>
  <outline>
    <contour>
      <point x="226" y="745" type="line"/>
      <point x="141" y="745" type="line"/>
      <point x="414" y="-83" type="line"/>
      <point x="499" y="-83" type="line"/>
    </contour>
  </outline>
</glyph>
<glyph name="bullet.large" format="2">
  <advance width="600"/>
  <outline>
    <contour>
      <point x="294" y="45" type="curve" smooth="yes"/>
      <point x="449" y="45"/>
      <point x="576" y="176"/>
      <point x="576" y="327" type="curve" smooth="yes"/>
      <point x="576" y="464"/>
      <point x="468" y="573"/>
      <point x="328" y="573" type="curve" smooth="yes"/>
      <point x="173" y="573"/>
      <point x="46" y="442"/>
      <point x="46" y="291" type="curve" smooth="yes"/>
      <point x="46" y="154"/>
      <point x="154" y="45"/>
    </contour>
  </outline>
</glyph>
<glyph name="caroncmb.alt" format="2">
  <advance width="600"/>
  <outline>
    <contour>
      <point x="361" y="700" type="line"/>
      <point x="327" y="550" type="line"/>
      <point x="391" y="550" type="line"/>
      <point x="443" y="700" type="line"/>
    </contour>
  </outline>
</glyph>
<glyph name="caroncmb.uc" format="2">
  <advance width="600"/>
  <outline>
    <contour>
      <point x="435" y="771" type="line"/>
      <point x="568" y="892" type="line"/>
      <point x="492" y="892" type="line"/>
      <point x="369" y="808" type="line"/>
      <point x="421" y="808" type="line"/>
      <point x="328" y="892" type="line"/>
      <point x="256" y="892" type="line"/>
      <point x="345" y="771" type="line"/>
    </contour>
  </outline>
</glyph>
<glyph name="circumflexcmb.uc" format="2">
  <advance width="600"/>
  <outline>
    <contour>
      <point x="367" y="892" type="line"/>
      <point x="234" y="771" type="line"/>
      <point x="312" y="771" type="line"/>
      <point x="435" y="855" type="line"/>
      <point x="383" y="855" type="line"/>
      <point x="476" y="771" type="line"/>
      <point x="546" y="771" type="line"/>
      <point x="457" y="892" type="line"/>
    </contour>
  </outline>
</glyph>
<glyph name="currency.tab" format="2">
  <advance width="600"/>
  <outline>
    <contour>
      <point x="190" y="323" type="curve" smooth="yes"/>
      <point x="190" y="402"/>
      <point x="251" y="484"/>
      <point x="343" y="484" type="curve" smooth="yes"/>
      <point x="414" y="484"/>
      <point x="460" y="436"/>
      <point x="460" y="367" type="curve" smooth="yes"/>
      <point x="460" y="288"/>
      <point x="399" y="206"/>
      <point x="307" y="206" type="curve" smooth="yes"/>
      <point x="236" y="206"/>
      <point x="190" y="254"/>
    </contour>
    <contour>
      <point x="193" y="451" type="line"/>
      <point x="251" y="498" type="line"/>
      <point x="167" y="604" type="line"/>
      <point x="109" y="557" type="line"/>
    </contour>
    <contour>
      <point x="297" y="135" type="curve" smooth="yes"/>
      <point x="437" y="135"/>
      <point x="536" y="255"/>
      <point x="536" y="375" type="curve" smooth="yes"/>
      <point x="536" y="477"/>
      <point x="459" y="555"/>
      <point x="353" y="555" type="curve" smooth="yes"/>
      <point x="213" y="555"/>
      <point x="114" y="435"/>
      <point x="114" y="315" type="curve" smooth="yes"/>
      <point x="114" y="213"/>
      <point x="191" y="135"/>
    </contour>
    <contour>
      <point x="483" y="86" type="line"/>
      <point x="541" y="133" type="line"/>
      <point x="457" y="239" type="line"/>
      <point x="399" y="192" type="line"/>
    </contour>
    <contour>
      <point x="451" y="494" type="line"/>
      <point x="495" y="439" type="line"/>
      <point x="615" y="537" type="line"/>
      <point x="571" y="592" type="line"/>
    </contour>
    <contour>
      <point x="35" y="153" type="line"/>
      <point x="79" y="98" type="line"/>
      <point x="199" y="196" type="line"/>
      <point x="155" y="251" type="line"/>
    </contour>
  </outline>
</glyph>
<glyph name="eight.den" format="2">
  <advance width="350"/>
  <outline>
    <contour>
      <point x="172" y="284" type="curve" smooth="yes"/>
      <point x="200" y="284"/>
      <point x="218" y="271"/>
      <point x="218" y="247" type="curve" smooth="yes"/>
      <point x="218" y="219"/>
      <point x="197" y="203"/>
      <point x="168" y="203" type="curve" smooth="yes"/>
      <point x="140" y="203"/>
      <point x="122" y="217"/>
      <point x="122" y="242" type="curve" smooth="yes"/>
      <point x="122" y="263"/>
      <point x="140" y="284"/>
    </contour>
    <contour>
      <point x="175" y="338" type="curve" smooth="yes"/>
      <point x="95" y="338"/>
      <point x="54" y="289"/>
      <point x="54" y="243" type="curve" smooth="yes"/>
      <point x="54" y="209"/>
      <point x="76" y="182"/>
      <point x="107" y="174" type="curve"/>
      <point x="109" y="182" type="line"/>
      <point x="57" y="172"/>
      <point x="16" y="141"/>
      <point x="16" y="90" type="curve" smooth="yes"/>
      <point x="16" y="29"/>
      <point x="71" y="-5"/>
      <point x="137" y="-5" type="curve" smooth="yes"/>
      <point x="209" y="-5"/>
      <point x="271" y="40"/>
      <point x="271" y="103" type="curve" smooth="yes"/>
      <point x="271" y="147"/>
      <point x="242" y="168"/>
      <point x="208" y="178" type="curve"/>
      <point x="206" y="169" type="line"/>
      <point x="248" y="177"/>
      <point x="287" y="203"/>
      <point x="287" y="250" type="curve" smooth="yes"/>
      <point x="287" y="301"/>
      <point x="244" y="338"/>
    </contour>
    <contour>
      <point x="148" y="150" type="curve" smooth="yes"/>
      <point x="181" y="150"/>
      <point x="200" y="134"/>
      <point x="200" y="107" type="curve" smooth="yes"/>
      <point x="200" y="70"/>
      <point x="174" y="49"/>
      <point x="141" y="49" type="curve" smooth="yes"/>
      <point x="108" y="49"/>
      <point x="89" y="68"/>
      <point x="89" y="96" type="curve" smooth="yes"/>
      <point x="89" y="126"/>
      <point x="113" y="150"/>
    </contour>
  </outline>
</glyph>
<glyph name="eight.num" format="2">
  <advance width="350"/>
  <outline>
    <contour>
      <point x="237" y="651" type="curve" smooth="yes"/>
      <point x="265" y="651"/>
      <point x="283" y="638"/>
      <point x="283" y="614" type="curve" smooth="yes"/>
      <point x="283" y="586"/>
      <point x="262" y="570"/>
      <point x="233" y="570" type="curve" smooth="yes"/>
      <point x="205" y="570"/>
      <point x="187" y="584"/>
      <point x="187" y="609" type="curve" smooth="yes"/>
      <point x="187" y="630"/>
      <point x="205" y="651"/>
    </contour>
    <contour>
      <point x="240" y="705" type="curve" smooth="yes"/>
      <point x="160" y="705"/>
      <point x="119" y="656"/>
      <point x="119" y="610" type="curve" smooth="yes"/>
      <point x="119" y="576"/>
      <point x="141" y="549"/>
      <point x="172" y="541" type="curve"/>
      <point x="174" y="549" type="line"/>
      <point x="122" y="539"/>
      <point x="81" y="508"/>
      <point x="81" y="457" type="curve" smooth="yes"/>
      <point x="81" y="396"/>
      <point x="136" y="362"/>
      <point x="202" y="362" type="curve" smooth="yes"/>
      <point x="274" y="362"/>
      <point x="336" y="407"/>
      <point x="336" y="470" type="curve" smooth="yes"/>
      <point x="336" y="514"/>
      <point x="307" y="535"/>
      <point x="273" y="545" type="curve"/>
      <point x="271" y="536" type="line"/>
      <point x="313" y="544"/>
      <point x="352" y="570"/>
      <point x="352" y="617" type="curve" smooth="yes"/>
      <point x="352" y="668"/>
      <point x="309" y="705"/>
    </contour>
    <contour>
      <point x="213" y="517" type="curve" smooth="yes"/>
      <point x="246" y="517"/>
      <point x="265" y="501"/>
      <point x="265" y="474" type="curve" smooth="yes"/>
      <point x="265" y="437"/>
      <point x="239" y="416"/>
      <point x="206" y="416" type="curve" smooth="yes"/>
      <point x="173" y="416"/>
      <point x="154" y="435"/>
      <point x="154" y="463" type="curve" smooth="yes"/>
      <point x="154" y="493"/>
      <point x="178" y="517"/>
    </contour>
  </outline>
</glyph>
<glyph name="eight.sub" format="2">
  <advance width="350"/>
  <outline>
    <contour>
      <point x="120" y="199" type="curve" smooth="yes"/>
      <point x="120" y="220"/>
      <point x="138" y="241"/>
      <point x="170" y="241" type="curve" smooth="yes"/>
      <point x="198" y="241"/>
      <point x="216" y="228"/>
      <point x="216" y="204" type="curve" smooth="yes"/>
      <point x="216" y="176"/>
      <point x="195" y="160"/>
      <point x="166" y="160" type="curve" smooth="yes"/>
      <point x="138" y="160"/>
      <point x="120" y="174"/>
    </contour>
    <contour>
      <point x="105" y="131" type="curve"/>
      <point x="107" y="139" type="line"/>
      <point x="55" y="129"/>
      <point x="14" y="98"/>
      <point x="14" y="47" type="curve" smooth="yes"/>
      <point x="14" y="-14"/>
      <point x="69" y="-48"/>
      <point x="135" y="-48" type="curve" smooth="yes"/>
      <point x="207" y="-48"/>
      <point x="269" y="-3"/>
      <point x="269" y="60" type="curve" smooth="yes"/>
      <point x="269" y="104"/>
      <point x="240" y="125"/>
      <point x="206" y="135" type="curve"/>
      <point x="204" y="126" type="line"/>
      <point x="246" y="134"/>
      <point x="285" y="160"/>
      <point x="285" y="207" type="curve" smooth="yes"/>
      <point x="285" y="258"/>
      <point x="242" y="295"/>
      <point x="173" y="295" type="curve" smooth="yes"/>
      <point x="93" y="295"/>
      <point x="52" y="246"/>
      <point x="52" y="200" type="curve" smooth="yes"/>
      <point x="52" y="166"/>
      <point x="74" y="139"/>
    </contour>
    <contour>
      <point x="139" y="6" type="curve" smooth="yes"/>
      <point x="106" y="6"/>
      <point x="87" y="25"/>
      <point x="87" y="53" type="curve" smooth="yes"/>
      <point x="87" y="83"/>
      <point x="111" y="107"/>
      <point x="146" y="107" type="curve" smooth="yes"/>
      <point x="179" y="107"/>
      <point x="198" y="91"/>
      <point x="198" y="64" type="curve" smooth="yes"/>
      <point x="198" y="27"/>
      <point x="172" y="6"/>
    </contour>
  </outline>
</glyph>
<glyph name="endash.uc" format="2">
  <advance width="600"/>
  <outline>
    <contour>
      <point x="78" y="298" type="line"/>
      <point x="540" y="298" type="line"/>
      <point x="554" y="374" type="line"/>
      <point x="92" y="374" type="line"/>
    </contour>
  </outline>
</glyph>
<glyph name="five.den" format="2">
  <advance width="350"/>
  <outline>
    <contour>
      <point x="156" y="314" type="line"/>
      <point x="113" y="273" type="line"/>
      <point x="291" y="273" type="line"/>
      <point x="301" y="333" type="line"/>
      <point x="95" y="333" type="line"/>
      <point x="47" y="146" type="line"/>
      <point x="113" y="141" type="line"/>
      <point x="124" y="159"/>
      <point x="139" y="171"/>
      <point x="161" y="171" type="curve" smooth="yes"/>
      <point x="187" y="171"/>
      <point x="201" y="154"/>
      <point x="201" y="125" type="curve" smooth="yes"/>
      <point x="201" y="85"/>
      <point x="180" y="51"/>
      <point x="146" y="51" type="curve" smooth="yes"/>
      <point x="115" y="51"/>
      <point x="99" y="72"/>
      <point x="103" y="102" type="curve"/>
      <point x="28" y="111" type="line"/>
      <point x="28" y="107"/>
      <point x="27" y="102"/>
      <point x="27" y="98" type="curve" smooth="yes"/>
      <point x="27" y="40"/>
      <point x="72" y="-5"/>
      <point x="145" y="-5" type="curve" smooth="yes"/>
      <point x="226" y="-5"/>
      <point x="275" y="56"/>
      <point x="275" y="131" type="curve" smooth="yes"/>
      <point x="275" y="189"/>
      <point x="239" y="226"/>
      <point x="185" y="226" type="curve" smooth="yes"/>
      <point x="140" y="226"/>
      <point x="113" y="196"/>
      <point x="97" y="166" type="curve"/>
      <point x="118" y="168" type="line"/>
    </contour>
  </outline>
</glyph>
<glyph name="five.num" format="2">
  <advance width="350"/>
  <outline>
    <contour>
      <point x="221" y="681" type="line"/>
      <point x="178" y="640" type="line"/>
      <point x="356" y="640" type="line"/>
      <point x="366" y="700" type="line"/>
      <point x="160" y="700" type="line"/>
      <point x="112" y="513" type="line"/>
      <point x="178" y="508" type="line"/>
      <point x="189" y="526"/>
      <point x="204" y="538"/>
      <point x="226" y="538" type="curve" smooth="yes"/>
      <point x="252" y="538"/>
      <point x="266" y="521"/>
      <point x="266" y="492" type="curve" smooth="yes"/>
      <point x="266" y="452"/>
      <point x="245" y="418"/>
      <point x="211" y="418" type="curve" smooth="yes"/>
      <point x="180" y="418"/>
      <point x="164" y="439"/>
      <point x="168" y="469" type="curve"/>
      <point x="93" y="478" type="line"/>
      <point x="93" y="474"/>
      <point x="92" y="469"/>
      <point x="92" y="465" type="curve" smooth="yes"/>
      <point x="92" y="407"/>
      <point x="137" y="362"/>
      <point x="210" y="362" type="curve" smooth="yes"/>
      <point x="291" y="362"/>
      <point x="340" y="423"/>
      <point x="340" y="498" type="curve" smooth="yes"/>
      <point x="340" y="556"/>
      <point x="304" y="593"/>
      <point x="250" y="593" type="curve" smooth="yes"/>
      <point x="205" y="593"/>
      <point x="178" y="563"/>
      <point x="162" y="533" type="curve"/>
      <point x="183" y="535" type="line"/>
    </contour>
  </outline>
</glyph>
<glyph name="five.sub" format="2">
  <advance width="350"/>
  <outline>
    <contour>
      <point x="154" y="271" type="line"/>
      <point x="111" y="230" type="line"/>
      <point x="289" y="230" type="line"/>
      <point x="299" y="290" type="line"/>
      <point x="93" y="290" type="line"/>
      <point x="45" y="103" type="line"/>
      <point x="111" y="98" type="line"/>
      <point x="122" y="116"/>
      <point x="137" y="128"/>
      <point x="159" y="128" type="curve" smooth="yes"/>
      <point x="185" y="128"/>
      <point x="199" y="111"/>
      <point x="199" y="82" type="curve" smooth="yes"/>
      <point x="199" y="42"/>
      <point x="178" y="8"/>
      <point x="144" y="8" type="curve" smooth="yes"/>
      <point x="113" y="8"/>
      <point x="97" y="29"/>
      <point x="101" y="59" type="curve"/>
      <point x="26" y="68" type="line"/>
      <point x="26" y="64"/>
      <point x="25" y="59"/>
      <point x="25" y="55" type="curve" smooth="yes"/>
      <point x="25" y="-3"/>
      <point x="70" y="-48"/>
      <point x="143" y="-48" type="curve" smooth="yes"/>
      <point x="224" y="-48"/>
      <point x="273" y="13"/>
      <point x="273" y="88" type="curve" smooth="yes"/>
      <point x="273" y="146"/>
      <point x="237" y="183"/>
      <point x="183" y="183" type="curve" smooth="yes"/>
      <point x="138" y="183"/>
      <point x="111" y="153"/>
      <point x="95" y="123" type="curve"/>
      <point x="116" y="125" type="line"/>
    </contour>
  </outline>
</glyph>
<glyph name="five.sup" format="2">
  <advance width="350"/>
  <outline>
    <contour>
      <point x="244" y="781" type="line"/>
      <point x="201" y="740" type="line"/>
      <point x="379" y="740" type="line"/>
      <point x="389" y="800" type="line"/>
      <point x="183" y="800" type="line"/>
      <point x="135" y="613" type="line"/>
      <point x="201" y="608" type="line"/>
      <point x="212" y="626"/>
      <point x="227" y="638"/>
      <point x="249" y="638" type="curve" smooth="yes"/>
      <point x="275" y="638"/>
      <point x="289" y="621"/>
      <point x="289" y="592" type="curve" smooth="yes"/>
      <point x="289" y="552"/>
      <point x="268" y="518"/>
      <point x="234" y="518" type="curve" smooth="yes"/>
      <point x="203" y="518"/>
      <point x="187" y="539"/>
      <point x="191" y="569" type="curve"/>
      <point x="116" y="578" type="line"/>
      <point x="116" y="574"/>
      <point x="115" y="569"/>
      <point x="115" y="565" type="curve" smooth="yes"/>
      <point x="115" y="507"/>
      <point x="160" y="462"/>
      <point x="233" y="462" type="curve" smooth="yes"/>
      <point x="314" y="462"/>
      <point x="363" y="523"/>
      <point x="363" y="598" type="curve" smooth="yes"/>
      <point x="363" y="656"/>
      <point x="327" y="693"/>
      <point x="273" y="693" type="curve" smooth="yes"/>
      <point x="228" y="693"/>
      <point x="201" y="663"/>
      <point x="185" y="633" type="curve"/>
      <point x="206" y="635" type="line"/>
    </contour>
  </outline>
</glyph>
<glyph name="four.den" format="2">
  <advance width="350"/>
  <outline>
    <contour>
      <point x="200" y="315" type="line"/>
      <point x="145" y="1" type="line"/>
      <point x="214" y="1" type="line"/>
      <point x="272" y="334" type="line"/>
      <point x="193" y="334" type="line"/>
      <point x="13" y="136" type="line"/>
      <point x="3" y="76" type="line"/>
      <point x="283" y="76" type="line"/>
      <point x="293" y="133" type="line"/>
      <point x="41" y="133" type="line"/>
      <point x="59" y="105" type="line"/>
      <point x="249" y="314" type="line"/>
    </contour>
  </outline>
</glyph>
<glyph name="four.num" format="2">
  <advance width="350"/>
  <outline>
    <contour>
      <point x="210" y="368" type="line"/>
      <point x="279" y="368" type="line"/>
      <point x="337" y="701" type="line"/>
      <point x="258" y="701" type="line"/>
      <point x="78" y="503" type="line"/>
      <point x="68" y="443" type="line"/>
      <point x="348" y="443" type="line"/>
      <point x="358" y="500" type="line"/>
      <point x="106" y="500" type="line"/>
      <point x="124" y="472" type="line"/>
      <point x="314" y="681" type="line"/>
      <point x="265" y="682" type="line"/>
    </contour>
  </outline>
</glyph>
<glyph name="four.sup" format="2">
  <advance width="350"/>
  <outline>
    <contour>
      <point x="233" y="468" type="line"/>
      <point x="302" y="468" type="line"/>
      <point x="360" y="801" type="line"/>
      <point x="281" y="801" type="line"/>
      <point x="101" y="603" type="line"/>
      <point x="91" y="543" type="line"/>
      <point x="371" y="543" type="line"/>
      <point x="381" y="600" type="line"/>
      <point x="129" y="600" type="line"/>
      <point x="147" y="572" type="line"/>
      <point x="337" y="781" type="line"/>
      <point x="288" y="782" type="line"/>
    </contour>
  </outline>
</glyph>
<glyph name="guarani.tab" format="2">
  <advance width="600"/>
  <outline>
    <contour>
      <point x="203" y="-112" type="line"/>
      <point x="270" y="-112" type="line"/>
      <point x="430" y="797" type="line"/>
      <point x="363" y="797" type="line"/>
    </contour>
    <contour>
      <point x="431" y="144" type="line"/>
      <point x="406" y="0" type="line"/>
      <point x="479" y="0" type="line"/>
      <point x="543" y="367" type="line"/>
      <point x="396" y="367" type="line"/>
      <point x="384" y="295" type="line"/>
      <point x="502" y="295" type="line"/>
      <point x="462" y="311" type="line"/>
      <point x="458" y="286" type="line" smooth="yes"/>
      <point x="438" y="164"/>
      <point x="373" y="63"/>
      <point x="281" y="63" type="curve" smooth="yes"/>
      <point x="205" y="63"/>
      <point x="160" y="133"/>
      <point x="160" y="251" type="curve" smooth="yes"/>
      <point x="160" y="423"/>
      <point x="236" y="635"/>
      <point x="376" y="635" type="curve" smooth="yes"/>
      <point x="457" y="635"/>
      <point x="485" y="569"/>
      <point x="485" y="478" type="curve"/>
      <point x="563" y="493" type="line"/>
      <point x="562" y="615"/>
      <point x="508" y="712"/>
      <point x="385" y="712" type="curve" smooth="yes"/>
      <point x="186" y="712"/>
      <point x="70" y="469"/>
      <point x="70" y="251" type="curve" smooth="yes"/>
      <point x="70" y="86"/>
      <point x="143" y="-12"/>
      <point x="263" y="-12" type="curve" smooth="yes"/>
      <point x="354" y="-12"/>
      <point x="420" y="47"/>
      <point x="450" y="138" type="curve"/>
    </contour>
  </outline>
</glyph>
<glyph name="horncmb.uc" format="2">
  <advance width="600"/>
  <outline>
    <contour>
      <point x="417" y="791" type="line"/>
      <point x="417" y="786"/>
      <point x="417" y="781"/>
      <point x="417" y="776" type="curve" smooth="yes"/>
      <point x="417" y="724"/>
      <point x="407" y="700"/>
      <point x="360" y="700" type="curve" smooth="yes"/>
      <point x="267" y="700" type="line"/>
      <point x="256" y="638" type="line"/>
      <point x="361" y="638" type="line" smooth="yes"/>
      <point x="464" y="638"/>
      <point x="486" y="696"/>
      <point x="486" y="773" type="curve" smooth="yes"/>
      <point x="486" y="780"/>
      <point x="486" y="786"/>
      <point x="485" y="791" type="curve"/>
    </contour>
  </outline>
</glyph>
<glyph name="minus.sup" format="2">
  <advance width="350"/>
  <outline>
    <contour>
      <point x="112" y="606" type="line"/>
      <point x="366" y="606" type="line"/>
      <point x="376" y="662" type="line"/>
      <point x="122" y="662" type="line"/>
    </contour>
  </outline>
</glyph>
<glyph name="naira.tab" format="2">
  <advance width="600"/>
  <outline>
    <contour>
      <point x="69" y="400" type="line"/>
      <point x="175" y="400" type="line"/>
      <point x="187" y="470" type="line"/>
      <point x="81" y="470" type="line"/>
    </contour>
    <contour>
      <point x="456" y="255" type="line"/>
      <point x="564" y="255" type="line"/>
      <point x="577" y="325" type="line"/>
      <point x="469" y="325" type="line"/>
    </contour>
    <contour>
      <point x="322" y="400" type="line"/>
      <point x="590" y="400" type="line"/>
      <point x="602" y="470" type="line"/>
      <point x="307" y="470" type="line"/>
    </contour>
    <contour>
      <point x="43" y="255" type="line"/>
      <point x="332" y="255" type="line"/>
      <point x="326" y="325" type="line"/>
      <point x="56" y="325" type="line"/>
    </contour>
    <contour>
      <point x="426" y="40" type="line"/>
      <point x="295" y="700" type="line"/>
      <point x="189" y="700" type="line"/>
      <point x="65" y="0" type="line"/>
      <point x="140" y="0" type="line"/>
      <point x="256" y="657" type="line"/>
      <point x="232" y="657" type="line"/>
      <point x="362" y="0" type="line"/>
      <point x="448" y="0" type="line"/>
      <point x="572" y="700" type="line"/>
      <point x="497" y="700" type="line"/>
      <point x="383" y="40" type="line"/>
    </contour>
  </outline>
</glyph>
<glyph name="nine.den" format="2">
  <advance width="350"/>
  <outline>
    <contour>
      <point x="174" y="338" type="curve" smooth="yes"/>
      <point x="103" y="338"/>
      <point x="45" y="288"/>
      <point x="45" y="206" type="curve" smooth="yes"/>
      <point x="45" y="142"/>
      <point x="90" y="112"/>
      <point x="141" y="112" type="curve" smooth="yes"/>
      <point x="189" y="112"/>
      <point x="219" y="139"/>
      <point x="236" y="189" type="curve"/>
      <point x="216" y="189" type="line"/>
      <point x="210" y="158" type="line" smooth="yes"/>
      <point x="200" y="98"/>
      <point x="183" y="50"/>
      <point x="141" y="50" type="curve" smooth="yes"/>
      <point x="114" y="50"/>
      <point x="99" y="64"/>
      <point x="100" y="90" type="curve"/>
      <point x="25" y="101" type="line"/>
      <point x="24" y="97"/>
      <point x="24" y="93"/>
      <point x="24" y="89" type="curve" smooth="yes"/>
      <point x="24" y="39"/>
      <point x="64" y="-5"/>
      <point x="134" y="-5" type="curve" smooth="yes"/>
      <point x="231" y="-5"/>
      <point x="270" y="82"/>
      <point x="283" y="155" type="curve" smooth="yes"/>
      <point x="286" y="178"/>
      <point x="288" y="199"/>
      <point x="288" y="216" type="curve" smooth="yes"/>
      <point x="288" y="290"/>
      <point x="251" y="338"/>
    </contour>
    <contour>
      <point x="176" y="282" type="curve" smooth="yes"/>
      <point x="200" y="282"/>
      <point x="219" y="267"/>
      <point x="219" y="237" type="curve" smooth="yes"/>
      <point x="219" y="194"/>
      <point x="193" y="166"/>
      <point x="161" y="166" type="curve" smooth="yes"/>
      <point x="137" y="166"/>
      <point x="117" y="181"/>
      <point x="117" y="211" type="curve" smooth="yes"/>
      <point x="117" y="241"/>
      <point x="135" y="282"/>
    </contour>
  </outline>
</glyph>
<glyph name="nine.num" format="2">
  <advance width="350"/>
  <outline>
    <contour>
      <point x="239" y="705" type="curve" smooth="yes"/>
      <point x="168" y="705"/>
      <point x="110" y="655"/>
      <point x="110" y="573" type="curve" smooth="yes"/>
      <point x="110" y="509"/>
      <point x="155" y="479"/>
      <point x="206" y="479" type="curve" smooth="yes"/>
      <point x="254" y="479"/>
      <point x="284" y="506"/>
      <point x="301" y="556" type="curve"/>
      <point x="281" y="556" type="line"/>
      <point x="275" y="525" type="line" smooth="yes"/>
      <point x="265" y="465"/>
      <point x="248" y="417"/>
      <point x="206" y="417" type="curve" smooth="yes"/>
      <point x="179" y="417"/>
      <point x="164" y="431"/>
      <point x="165" y="457" type="curve"/>
      <point x="90" y="468" type="line"/>
      <point x="89" y="464"/>
      <point x="89" y="460"/>
      <point x="89" y="456" type="curve" smooth="yes"/>
      <point x="89" y="406"/>
      <point x="129" y="362"/>
      <point x="199" y="362" type="curve" smooth="yes"/>
      <point x="296" y="362"/>
      <point x="335" y="449"/>
      <point x="348" y="522" type="curve" smooth="yes"/>
      <point x="351" y="545"/>
      <point x="353" y="566"/>
      <point x="353" y="583" type="curve" smooth="yes"/>
      <point x="353" y="657"/>
      <point x="316" y="705"/>
    </contour>
    <contour>
      <point x="241" y="649" type="curve" smooth="yes"/>
      <point x="265" y="649"/>
      <point x="284" y="634"/>
      <point x="284" y="604" type="curve" smooth="yes"/>
      <point x="284" y="561"/>
      <point x="258" y="533"/>
      <point x="226" y="533" type="curve" smooth="yes"/>
      <point x="202" y="533"/>
      <point x="182" y="548"/>
      <point x="182" y="578" type="curve" smooth="yes"/>
      <point x="182" y="608"/>
      <point x="200" y="649"/>
    </contour>
  </outline>
</glyph>
<glyph name="one.den" format="2">
  <advance width="350"/>
  <outline>
    <contour>
      <point x="152" y="333" type="line"/>
      <point x="142" y="275"/>
      <point x="123" y="257"/>
      <point x="48" y="257" type="curve"/>
      <point x="38" y="204" type="line"/>
      <point x="164" y="204" type="line"/>
      <point x="130" y="249" type="line"/>
      <point x="87" y="0" type="line"/>
      <point x="159" y="0" type="line"/>
      <point x="217" y="333" type="line"/>
    </contour>
  </outline>
</glyph>
<glyph name="one.num" format="2">
  <advance width="350"/>
  <outline>
    <contour>
      <point x="217" y="700" type="line"/>
      <point x="207" y="642"/>
      <point x="188" y="624"/>
      <point x="113" y="624" type="curve"/>
      <point x="103" y="571" type="line"/>
      <point x="229" y="571" type="line"/>
      <point x="195" y="616" type="line"/>
      <point x="152" y="367" type="line"/>
      <point x="224" y="367" type="line"/>
      <point x="282" y="700" type="line"/>
    </contour>
  </outline>
</glyph>
<glyph name="one.sup" format="2">
  <advance width="350"/>
  <outline>
    <contour>
      <point x="240" y="800" type="line"/>
      <point x="230" y="742"/>
      <point x="211" y="724"/>
      <point x="136" y="724" type="curve"/>
      <point x="126" y="671" type="line"/>
      <point x="252" y="671" type="line"/>
      <point x="218" y="716" type="line"/>
      <point x="175" y="467" type="line"/>
      <point x="247" y="467" type="line"/>
      <point x="305" y="800" type="line"/>
    </contour>
  </outline>
</glyph>
<glyph name="percent.tab" format="2">
  <advance width="600"/>
  <outline>
    <contour>
      <point x="63" y="513" type="curve" smooth="yes"/>
      <point x="63" y="432"/>
      <point x="109" y="383"/>
      <point x="175" y="383" type="curve" smooth="yes"/>
      <point x="275" y="383"/>
      <point x="333" y="484"/>
      <point x="333" y="575" type="curve" smooth="yes"/>
      <point x="333" y="656"/>
      <point x="287" y="705"/>
      <point x="221" y="705" type="curve" smooth="yes"/>
      <point x="121" y="705"/>
      <point x="63" y="604"/>
    </contour>
    <contour>
      <point x="135" y="516" type="curve" smooth="yes"/>
      <point x="135" y="572"/>
      <point x="161" y="640"/>
      <point x="213" y="640" type="curve" smooth="yes"/>
      <point x="244" y="640"/>
      <point x="261" y="616"/>
      <point x="261" y="572" type="curve" smooth="yes"/>
      <point x="261" y="516"/>
      <point x="235" y="448"/>
      <point x="183" y="448" type="curve" smooth="yes"/>
      <point x="152" y="448"/>
      <point x="135" y="472"/>
    </contour>
    <contour>
      <point x="98" y="0" type="line"/>
      <point x="614" y="700" type="line"/>
      <point x="532" y="700" type="line"/>
      <point x="16" y="0" type="line"/>
    </contour>
    <contour>
      <point x="297" y="125" type="curve" smooth="yes"/>
      <point x="297" y="44"/>
      <point x="343" y="-5"/>
      <point x="409" y="-5" type="curve" smooth="yes"/>
      <point x="509" y="-5"/>
      <point x="567" y="96"/>
      <point x="567" y="187" type="curve" smooth="yes"/>
      <point x="567" y="268"/>
      <point x="521" y="317"/>
      <point x="455" y="317" type="curve" smooth="yes"/>
      <point x="355" y="317"/>
      <point x="297" y="216"/>
    </contour>
    <contour>
      <point x="369" y="128" type="curve" smooth="yes"/>
      <point x="369" y="184"/>
      <point x="395" y="252"/>
      <point x="447" y="252" type="curve" smooth="yes"/>
      <point x="478" y="252"/>
      <point x="495" y="228"/>
      <point x="495" y="184" type="curve" smooth="yes"/>
      <point x="495" y="128"/>
      <point x="469" y="60"/>
      <point x="417" y="60" type="curve" smooth="yes"/>
      <point x="386" y="60"/>
      <point x="369" y="84"/>
    </contour>
  </outline>
</glyph>
<glyph name="plus.sub" format="2">
  <advance width="350"/>
  <outline>
    <contour>
      <point x="22" y="96" type="line"/>
      <point x="276" y="96" type="line"/>
      <point x="286" y="152" type="line"/>
      <point x="32" y="152" type="line"/>
    </contour>
    <contour>
      <point x="147" y="258" type="line"/>
      <point x="100" y="-10" type="line"/>
      <point x="160" y="-10" type="line"/>
      <point x="207" y="258" type="line"/>
    </contour>
  </outline>
</glyph>
<glyph name="plus.sup" format="2">
  <advance width="350"/>
  <outline>
    <contour>
      <point x="112" y="606" type="line"/>
      <point x="366" y="606" type="line"/>
      <point x="376" y="662" type="line"/>
      <point x="122" y="662" type="line"/>
    </contour>
    <contour>
      <point x="237" y="768" type="line"/>
      <point x="190" y="500" type="line"/>
      <point x="250" y="500" type="line"/>
      <point x="297" y="768" type="line"/>
    </contour>
  </outline>
</glyph>
<glyph name="seven.den" format="2">
  <advance width="350"/>
  <outline>
    <contour>
      <point x="76" y="333" type="line"/>
      <point x="54" y="207" type="line"/>
      <point x="122" y="207" type="line"/>
      <point x="139" y="303" type="line"/>
      <point x="109" y="273" type="line"/>
      <point x="281" y="273" type="line"/>
      <point x="265" y="311" type="line"/>
      <point x="184" y="214"/>
      <point x="101" y="113"/>
      <point x="77" y="0" type="curve"/>
      <point x="155" y="0" type="line"/>
      <point x="181" y="111"/>
      <point x="249" y="202"/>
      <point x="319" y="294" type="curve"/>
      <point x="326" y="333" type="line"/>
    </contour>
  </outline>
</glyph>
<glyph name="seven.num" format="2">
  <advance width="350"/>
  <outline>
    <contour>
      <point x="141" y="700" type="line"/>
      <point x="119" y="574" type="line"/>
      <point x="187" y="574" type="line"/>
      <point x="204" y="670" type="line"/>
      <point x="174" y="640" type="line"/>
      <point x="346" y="640" type="line"/>
      <point x="330" y="678" type="line"/>
      <point x="249" y="581"/>
      <point x="166" y="480"/>
      <point x="142" y="367" type="curve"/>
      <point x="220" y="367" type="line"/>
      <point x="246" y="478"/>
      <point x="314" y="569"/>
      <point x="384" y="661" type="curve"/>
      <point x="391" y="700" type="line"/>
    </contour>
  </outline>
</glyph>
<glyph name="seven.sub" format="2">
  <advance width="350"/>
  <outline>
    <contour>
      <point x="74" y="290" type="line"/>
      <point x="52" y="164" type="line"/>
      <point x="120" y="164" type="line"/>
      <point x="137" y="260" type="line"/>
      <point x="107" y="230" type="line"/>
      <point x="279" y="230" type="line"/>
      <point x="263" y="268" type="line"/>
      <point x="182" y="171"/>
      <point x="99" y="70"/>
      <point x="75" y="-43" type="curve"/>
      <point x="153" y="-43" type="line"/>
      <point x="179" y="68"/>
      <point x="247" y="159"/>
      <point x="317" y="251" type="curve"/>
      <point x="324" y="290" type="line"/>
    </contour>
  </outline>
</glyph>
<glyph name="seven.sup" format="2">
  <advance width="350"/>
  <outline>
    <contour>
      <point x="164" y="800" type="line"/>
      <point x="142" y="674" type="line"/>
      <point x="210" y="674" type="line"/>
      <point x="227" y="770" type="line"/>
      <point x="197" y="740" type="line"/>
      <point x="369" y="740" type="line"/>
      <point x="353" y="778" type="line"/>
      <point x="272" y="681"/>
      <point x="189" y="580"/>
      <point x="165" y="467" type="curve"/>
      <point x="243" y="467" type="line"/>
      <point x="269" y="578"/>
      <point x="337" y="669"/>
      <point x="407" y="761" type="curve"/>
      <point x="414" y="800" type="line"/>
    </contour>
  </outline>
</glyph>
<glyph name="six.den" format="2">
  <advance width="350"/>
  <outline>
    <contour>
      <point x="23" y="118" type="curve" smooth="yes"/>
      <point x="23" y="44"/>
      <point x="59" y="-5"/>
      <point x="135" y="-5" type="curve" smooth="yes"/>
      <point x="212" y="-5"/>
      <point x="265" y="59"/>
      <point x="265" y="133" type="curve" smooth="yes"/>
      <point x="265" y="194"/>
      <point x="226" y="221"/>
      <point x="175" y="221" type="curve" smooth="yes"/>
      <point x="128" y="221"/>
      <point x="92" y="189"/>
      <point x="74" y="145" type="curve"/>
      <point x="94" y="149" type="line"/>
      <point x="99" y="178" type="line" smooth="yes"/>
      <point x="111" y="247"/>
      <point x="150" y="279"/>
      <point x="183" y="279" type="curve" smooth="yes"/>
      <point x="204" y="279"/>
      <point x="215" y="264"/>
      <point x="212" y="243" type="curve"/>
      <point x="281" y="235" type="line"/>
      <point x="282" y="242"/>
      <point x="283" y="249"/>
      <point x="283" y="255" type="curve" smooth="yes"/>
      <point x="283" y="304"/>
      <point x="253" y="338"/>
      <point x="194" y="338" type="curve" smooth="yes"/>
      <point x="111" y="338"/>
      <point x="44" y="267"/>
      <point x="29" y="182" type="curve" smooth="yes"/>
      <point x="25" y="159"/>
      <point x="23" y="137"/>
    </contour>
    <contour>
      <point x="92" y="96" type="curve" smooth="yes"/>
      <point x="92" y="126"/>
      <point x="109" y="167"/>
      <point x="150" y="167" type="curve" smooth="yes"/>
      <point x="177" y="167"/>
      <point x="193" y="150"/>
      <point x="193" y="121" type="curve" smooth="yes"/>
      <point x="193" y="90"/>
      <point x="173" y="50"/>
      <point x="134" y="50" type="curve" smooth="yes"/>
      <point x="107" y="50"/>
      <point x="92" y="67"/>
    </contour>
  </outline>
</glyph>
<glyph name="six.num" format="2">
  <advance width="350"/>
  <outline>
    <contour>
      <point x="88" y="485" type="curve" smooth="yes"/>
      <point x="88" y="411"/>
      <point x="124" y="362"/>
      <point x="200" y="362" type="curve" smooth="yes"/>
      <point x="277" y="362"/>
      <point x="330" y="426"/>
      <point x="330" y="500" type="curve" smooth="yes"/>
      <point x="330" y="561"/>
      <point x="291" y="588"/>
      <point x="240" y="588" type="curve" smooth="yes"/>
      <point x="193" y="588"/>
      <point x="157" y="556"/>
      <point x="139" y="512" type="curve"/>
      <point x="159" y="516" type="line"/>
      <point x="164" y="545" type="line" smooth="yes"/>
      <point x="176" y="614"/>
      <point x="215" y="646"/>
      <point x="248" y="646" type="curve" smooth="yes"/>
      <point x="269" y="646"/>
      <point x="280" y="631"/>
      <point x="277" y="610" type="curve"/>
      <point x="346" y="602" type="line"/>
      <point x="347" y="609"/>
      <point x="348" y="616"/>
      <point x="348" y="622" type="curve" smooth="yes"/>
      <point x="348" y="671"/>
      <point x="318" y="705"/>
      <point x="259" y="705" type="curve" smooth="yes"/>
      <point x="176" y="705"/>
      <point x="109" y="634"/>
      <point x="94" y="549" type="curve" smooth="yes"/>
      <point x="90" y="526"/>
      <point x="88" y="504"/>
    </contour>
    <contour>
      <point x="157" y="463" type="curve" smooth="yes"/>
      <point x="157" y="493"/>
      <point x="174" y="534"/>
      <point x="215" y="534" type="curve" smooth="yes"/>
      <point x="242" y="534"/>
      <point x="258" y="517"/>
      <point x="258" y="488" type="curve" smooth="yes"/>
      <point x="258" y="457"/>
      <point x="238" y="417"/>
      <point x="199" y="417" type="curve" smooth="yes"/>
      <point x="172" y="417"/>
      <point x="157" y="434"/>
    </contour>
  </outline>
</glyph>
<glyph name="six.sub" format="2">
  <advance width="350"/>
  <outline>
    <contour>
      <point x="21" y="75" type="curve" smooth="yes"/>
      <point x="21" y="1"/>
      <point x="57" y="-48"/>
      <point x="133" y="-48" type="curve" smooth="yes"/>
      <point x="210" y="-48"/>
      <point x="263" y="16"/>
      <point x="263" y="90" type="curve" smooth="yes"/>
      <point x="263" y="151"/>
      <point x="224" y="178"/>
      <point x="173" y="178" type="curve" smooth="yes"/>
      <point x="126" y="178"/>
      <point x="90" y="146"/>
      <point x="72" y="102" type="curve"/>
      <point x="92" y="106" type="line"/>
      <point x="97" y="135" type="line" smooth="yes"/>
      <point x="109" y="204"/>
      <point x="148" y="236"/>
      <point x="181" y="236" type="curve" smooth="yes"/>
      <point x="202" y="236"/>
      <point x="213" y="221"/>
      <point x="210" y="200" type="curve"/>
      <point x="279" y="192" type="line"/>
      <point x="280" y="199"/>
      <point x="281" y="206"/>
      <point x="281" y="212" type="curve" smooth="yes"/>
      <point x="281" y="261"/>
      <point x="251" y="295"/>
      <point x="192" y="295" type="curve" smooth="yes"/>
      <point x="109" y="295"/>
      <point x="42" y="224"/>
      <point x="27" y="139" type="curve" smooth="yes"/>
      <point x="23" y="116"/>
      <point x="21" y="94"/>
    </contour>
    <contour>
      <point x="90" y="53" type="curve" smooth="yes"/>
      <point x="90" y="83"/>
      <point x="107" y="124"/>
      <point x="148" y="124" type="curve" smooth="yes"/>
      <point x="175" y="124"/>
      <point x="191" y="107"/>
      <point x="191" y="78" type="curve" smooth="yes"/>
      <point x="191" y="47"/>
      <point x="171" y="7"/>
      <point x="132" y="7" type="curve" smooth="yes"/>
      <point x="105" y="7"/>
      <point x="90" y="24"/>
    </contour>
  </outline>
</glyph>
<glyph name="six.sup" format="2">
  <advance width="350"/>
  <outline>
    <contour>
      <point x="111" y="585" type="curve" smooth="yes"/>
      <point x="111" y="511"/>
      <point x="147" y="462"/>
      <point x="223" y="462" type="curve" smooth="yes"/>
      <point x="300" y="462"/>
      <point x="353" y="526"/>
      <point x="353" y="600" type="curve" smooth="yes"/>
      <point x="353" y="661"/>
      <point x="314" y="688"/>
      <point x="263" y="688" type="curve" smooth="yes"/>
      <point x="216" y="688"/>
      <point x="180" y="656"/>
      <point x="162" y="612" type="curve"/>
      <point x="182" y="616" type="line"/>
      <point x="187" y="645" type="line" smooth="yes"/>
      <point x="199" y="714"/>
      <point x="238" y="746"/>
      <point x="271" y="746" type="curve" smooth="yes"/>
      <point x="292" y="746"/>
      <point x="303" y="731"/>
      <point x="300" y="710" type="curve"/>
      <point x="369" y="702" type="line"/>
      <point x="370" y="709"/>
      <point x="371" y="716"/>
      <point x="371" y="722" type="curve" smooth="yes"/>
      <point x="371" y="771"/>
      <point x="341" y="805"/>
      <point x="282" y="805" type="curve" smooth="yes"/>
      <point x="199" y="805"/>
      <point x="132" y="734"/>
      <point x="117" y="649" type="curve" smooth="yes"/>
      <point x="113" y="626"/>
      <point x="111" y="604"/>
    </contour>
    <contour>
      <point x="180" y="563" type="curve" smooth="yes"/>
      <point x="180" y="593"/>
      <point x="197" y="634"/>
      <point x="238" y="634" type="curve" smooth="yes"/>
      <point x="265" y="634"/>
      <point x="281" y="617"/>
      <point x="281" y="588" type="curve" smooth="yes"/>
      <point x="281" y="557"/>
      <point x="261" y="517"/>
      <point x="222" y="517" type="curve" smooth="yes"/>
      <point x="195" y="517"/>
      <point x="180" y="534"/>
    </contour>
  </outline>
</glyph>
<glyph name="three.den" format="2">
  <advance width="350"/>
  <outline>
    <contour>
      <point x="18" y="114" type="line"/>
      <point x="16" y="106"/>
      <point x="15" y="98"/>
      <point x="15" y="90" type="curve" smooth="yes"/>
      <point x="15" y="35"/>
      <point x="65" y="-4"/>
      <point x="133" y="-4" type="curve" smooth="yes"/>
      <point x="217" y="-4"/>
      <point x="267" y="49"/>
      <point x="267" y="106" type="curve" smooth="yes"/>
      <point x="267" y="143"/>
      <point x="244" y="163"/>
      <point x="213" y="172" type="curve"/>
      <point x="212" y="168" type="line"/>
      <point x="245" y="176"/>
      <point x="285" y="203"/>
      <point x="285" y="254" type="curve" smooth="yes"/>
      <point x="285" y="304"/>
      <point x="246" y="339"/>
      <point x="176" y="339" type="curve" smooth="yes"/>
      <point x="97" y="339"/>
      <point x="49" y="300"/>
      <point x="43" y="231" type="curve"/>
      <point x="115" y="235" type="line"/>
      <point x="119" y="269"/>
      <point x="141" y="282"/>
      <point x="170" y="282" type="curve" smooth="yes"/>
      <point x="195" y="282"/>
      <point x="213" y="269"/>
      <point x="213" y="247" type="curve" smooth="yes"/>
      <point x="213" y="225"/>
      <point x="197" y="200"/>
      <point x="159" y="200" type="curve" smooth="yes"/>
      <point x="133" y="200" type="line"/>
      <point x="123" y="145" type="line"/>
      <point x="149" y="145" type="line" smooth="yes"/>
      <point x="181" y="145"/>
      <point x="196" y="129"/>
      <point x="196" y="107" type="curve" smooth="yes"/>
      <point x="196" y="73"/>
      <point x="172" y="53"/>
      <point x="140" y="53" type="curve" smooth="yes"/>
      <point x="111" y="53"/>
      <point x="89" y="74"/>
      <point x="89" y="101" type="curve" smooth="yes"/>
      <point x="89" y="104"/>
      <point x="90" y="106"/>
      <point x="90" y="109" type="curve"/>
    </contour>
  </outline>
</glyph>
<glyph name="three.num" format="2">
  <advance width="350"/>
  <outline>
    <contour>
      <point x="83" y="481" type="line"/>
      <point x="81" y="473"/>
      <point x="80" y="465"/>
      <point x="80" y="457" type="curve" smooth="yes"/>
      <point x="80" y="402"/>
      <point x="130" y="363"/>
      <point x="198" y="363" type="curve" smooth="yes"/>
      <point x="282" y="363"/>
      <point x="332" y="416"/>
      <point x="332" y="473" type="curve" smooth="yes"/>
      <point x="332" y="510"/>
      <point x="309" y="530"/>
      <point x="278" y="539" type="curve"/>
      <point x="277" y="535" type="line"/>
      <point x="310" y="543"/>
      <point x="350" y="570"/>
      <point x="350" y="621" type="curve" smooth="yes"/>
      <point x="350" y="671"/>
      <point x="311" y="706"/>
      <point x="241" y="706" type="curve" smooth="yes"/>
      <point x="162" y="706"/>
      <point x="114" y="667"/>
      <point x="108" y="598" type="curve"/>
      <point x="180" y="602" type="line"/>
      <point x="184" y="636"/>
      <point x="206" y="649"/>
      <point x="235" y="649" type="curve" smooth="yes"/>
      <point x="260" y="649"/>
      <point x="278" y="636"/>
      <point x="278" y="614" type="curve" smooth="yes"/>
      <point x="278" y="592"/>
      <point x="262" y="567"/>
      <point x="224" y="567" type="curve" smooth="yes"/>
      <point x="198" y="567" type="line"/>
      <point x="188" y="512" type="line"/>
      <point x="214" y="512" type="line" smooth="yes"/>
      <point x="246" y="512"/>
      <point x="261" y="496"/>
      <point x="261" y="474" type="curve" smooth="yes"/>
      <point x="261" y="440"/>
      <point x="237" y="420"/>
      <point x="205" y="420" type="curve" smooth="yes"/>
      <point x="176" y="420"/>
      <point x="154" y="441"/>
      <point x="154" y="468" type="curve" smooth="yes"/>
      <point x="154" y="471"/>
      <point x="155" y="473"/>
      <point x="155" y="476" type="curve"/>
    </contour>
  </outline>
</glyph>
<glyph name="two.den" format="2">
  <advance width="350"/>
  <outline>
    <contour>
      <point x="15" y="60" type="curve"/>
      <point x="5" y="1" type="line"/>
      <point x="243" y="1" type="line"/>
      <point x="253" y="62" type="line"/>
      <point x="59" y="62" type="line"/>
      <point x="57" y="27" type="line"/>
      <point x="195" y="104"/>
      <point x="281" y="166"/>
      <point x="281" y="242" type="curve" smooth="yes"/>
      <point x="281" y="289"/>
      <point x="245" y="339"/>
      <point x="167" y="339" type="curve" smooth="yes"/>
      <point x="76" y="339"/>
      <point x="42" y="277"/>
      <point x="42" y="228" type="curve" smooth="yes"/>
      <point x="42" y="217"/>
      <point x="44" y="207"/>
      <point x="47" y="199" type="curve"/>
      <point x="116" y="207" type="line"/>
      <point x="115" y="213"/>
      <point x="113" y="220"/>
      <point x="113" y="231" type="curve" smooth="yes"/>
      <point x="113" y="252"/>
      <point x="129" y="279"/>
      <point x="166" y="279" type="curve" smooth="yes"/>
      <point x="195" y="279"/>
      <point x="209" y="262"/>
      <point x="209" y="238" type="curve" smooth="yes"/>
      <point x="209" y="205"/>
      <point x="189" y="168"/>
    </contour>
  </outline>
</glyph>
<glyph name="two.num" format="2">
  <advance width="350"/>
  <outline>
    <contour>
      <point x="80" y="427" type="curve"/>
      <point x="70" y="368" type="line"/>
      <point x="308" y="368" type="line"/>
      <point x="318" y="429" type="line"/>
      <point x="124" y="429" type="line"/>
      <point x="122" y="394" type="line"/>
      <point x="260" y="471"/>
      <point x="346" y="533"/>
      <point x="346" y="609" type="curve" smooth="yes"/>
      <point x="346" y="656"/>
      <point x="310" y="706"/>
      <point x="232" y="706" type="curve" smooth="yes"/>
      <point x="141" y="706"/>
      <point x="107" y="644"/>
      <point x="107" y="595" type="curve" smooth="yes"/>
      <point x="107" y="584"/>
      <point x="109" y="574"/>
      <point x="112" y="566" type="curve"/>
      <point x="181" y="574" type="line"/>
      <point x="180" y="580"/>
      <point x="178" y="587"/>
      <point x="178" y="598" type="curve" smooth="yes"/>
      <point x="178" y="619"/>
      <point x="194" y="646"/>
      <point x="231" y="646" type="curve" smooth="yes"/>
      <point x="260" y="646"/>
      <point x="274" y="629"/>
      <point x="274" y="605" type="curve" smooth="yes"/>
      <point x="274" y="572"/>
      <point x="254" y="535"/>
    </contour>
  </outline>
</glyph>
<glyph name="two.sub" format="2">
  <advance width="350"/>
  <outline>
    <contour>
      <point x="13" y="17" type="curve"/>
      <point x="3" y="-42" type="line"/>
      <point x="241" y="-42" type="line"/>
      <point x="251" y="19" type="line"/>
      <point x="57" y="19" type="line"/>
      <point x="55" y="-16" type="line"/>
      <point x="193" y="61"/>
      <point x="279" y="123"/>
      <point x="279" y="199" type="curve" smooth="yes"/>
      <point x="279" y="246"/>
      <point x="243" y="296"/>
      <point x="165" y="296" type="curve" smooth="yes"/>
      <point x="74" y="296"/>
      <point x="40" y="234"/>
      <point x="40" y="185" type="curve" smooth="yes"/>
      <point x="40" y="174"/>
      <point x="42" y="164"/>
      <point x="45" y="156" type="curve"/>
      <point x="114" y="164" type="line"/>
      <point x="113" y="170"/>
      <point x="111" y="177"/>
      <point x="111" y="188" type="curve" smooth="yes"/>
      <point x="111" y="209"/>
      <point x="127" y="236"/>
      <point x="164" y="236" type="curve" smooth="yes"/>
      <point x="193" y="236"/>
      <point x="207" y="219"/>
      <point x="207" y="195" type="curve" smooth="yes"/>
      <point x="207" y="162"/>
      <point x="187" y="125"/>
    </contour>
  </outline>
</glyph>
<glyph name="two.sup" format="2">
  <advance width="350"/>
  <outline>
    <contour>
      <point x="103" y="527" type="curve"/>
      <point x="93" y="468" type="line"/>
      <point x="331" y="468" type="line"/>
      <point x="341" y="529" type="line"/>
      <point x="147" y="529" type="line"/>
      <point x="145" y="494" type="line"/>
      <point x="283" y="571"/>
      <point x="369" y="633"/>
      <point x="369" y="709" type="curve" smooth="yes"/>
      <point x="369" y="756"/>
      <point x="333" y="806"/>
      <point x="255" y="806" type="curve" smooth="yes"/>
      <point x="164" y="806"/>
      <point x="130" y="744"/>
      <point x="130" y="695" type="curve" smooth="yes"/>
      <point x="130" y="684"/>
      <point x="132" y="674"/>
      <point x="135" y="666" type="curve"/>
      <point x="204" y="674" type="line"/>
      <point x="203" y="680"/>
      <point x="201" y="687"/>
      <point x="201" y="698" type="curve" smooth="yes"/>
      <point x="201" y="719"/>
      <point x="217" y="746"/>
      <point x="254" y="746" type="curve" smooth="yes"/>
      <point x="283" y="746"/>
      <point x="297" y="729"/>
      <point x="297" y="705" type="curve" smooth="yes"/>
      <point x="297" y="672"/>
      <point x="277" y="635"/>
    </contour>
  </outline>
</glyph>
<glyph name="zero.den" format="2">
  <advance width="350"/>
  <outline>
    <contour>
      <point x="216" y="216" type="curve" smooth="yes"/>
      <point x="216" y="141"/>
      <point x="190" y="56"/>
      <point x="139" y="56" type="curve" smooth="yes"/>
      <point x="109" y="56"/>
      <point x="96" y="75"/>
      <point x="96" y="117" type="curve" smooth="yes"/>
      <point x="96" y="192"/>
      <point x="121" y="277"/>
      <point x="172" y="277" type="curve" smooth="yes"/>
      <point x="202" y="277"/>
      <point x="216" y="258"/>
    </contour>
    <contour>
      <point x="24" y="126" type="curve" smooth="yes"/>
      <point x="24" y="45"/>
      <point x="66" y="-5"/>
      <point x="134" y="-5" type="curve" smooth="yes"/>
      <point x="230" y="-5"/>
      <point x="287" y="97"/>
      <point x="287" y="207" type="curve" smooth="yes"/>
      <point x="287" y="288"/>
      <point x="245" y="338"/>
      <point x="177" y="338" type="curve" smooth="yes"/>
      <point x="81" y="338"/>
      <point x="24" y="236"/>
    </contour>
  </outline>
</glyph>
<glyph name="zero.num" format="2">
  <advance width="350"/>
  <outline>
    <contour>
      <point x="281" y="583" type="curve" smooth="yes"/>
      <point x="281" y="508"/>
      <point x="255" y="423"/>
      <point x="204" y="423" type="curve" smooth="yes"/>
      <point x="174" y="423"/>
      <point x="161" y="442"/>
      <point x="161" y="484" type="curve" smooth="yes"/>
      <point x="161" y="559"/>
      <point x="186" y="644"/>
      <point x="237" y="644" type="curve" smooth="yes"/>
      <point x="267" y="644"/>
      <point x="281" y="625"/>
    </contour>
    <contour>
      <point x="89" y="493" type="curve" smooth="yes"/>
      <point x="89" y="412"/>
      <point x="131" y="362"/>
      <point x="199" y="362" type="curve" smooth="yes"/>
      <point x="295" y="362"/>
      <point x="352" y="464"/>
      <point x="352" y="574" type="curve" smooth="yes"/>
      <point x="352" y="655"/>
      <point x="310" y="705"/>
      <point x="242" y="705" type="curve" smooth="yes"/>
      <point x="146" y="705"/>
      <point x="89" y="603"/>
    </contour>
  </outline>
</glyph>
